<svg id="Layer_1" data-name="Layer 1" xmlns="http://www.w3.org/2000/svg" viewBox="0 0 269.33 23.89">
  <defs>
    <style>
      .cls-1 {
        fill: #ce0e2d;
      }
    </style>
  </defs>
  <title>calabrio</title>
  <g>
    <path class="cls-1" d="M0,12.08a11.81,11.81,0,0,0,11.8,11.8H26.37l3.16-5.69V18H12.06a5.92,5.92,0,1,1,0-11.84H30.42V.28H11.8A11.81,11.81,0,0,0,0,12.08"/>
    <path class="cls-1" d="M76.49,16.51V.26H70.34V16.51a7.39,7.39,0,0,0,7.38,7.38H91.08l3.17-5.7V18H78a1.5,1.5,0,0,1-1.49-1.5"/>
    <path class="cls-1" d="M242.85.28H234a11.8,11.8,0,0,0,0,23.6h8.88a11.8,11.8,0,1,0,0-23.6M242.59,18h-8.36a5.92,5.92,0,1,1,0-11.84h8.36a5.92,5.92,0,0,1,0,11.84"/>
    <rect class="cls-1" x="209.54" y="0.26" width="5.88" height="23.62"/>
    <path class="cls-1" d="M195.38,15a7.38,7.38,0,1,0,0-14.75H173.06V23.87h6.14V6.17h16.18a1.49,1.49,0,1,1,0,3H182.46V15h0l11,8.84H203L191.63,15Z"/>
    <path class="cls-1" d="M114.47,0H114a5.79,5.79,0,0,0-5.47,3.17c-.77,1.3-11.48,20.72-11.48,20.72h6.73l9.94-18,0,0v0a.57.57,0,0,1,.48-.28.55.55,0,0,1,.47.28h0l4.22,7.62h-6.06l-3.13,5.62h12.3l2.66,4.78h6.73S120.71,4.47,119.94,3.17A5.78,5.78,0,0,0,114.47,0"/>
    <path class="cls-1" d="M50.16,0h-.47a5.78,5.78,0,0,0-5.47,3.17c-.76,1.3-11.48,20.72-11.48,20.72h6.72l10-18v0l0,0a.53.53,0,0,1,.94,0h0l4.22,7.62H48.56l-3.12,5.62H57.73l2.66,4.78h6.73S56.39,4.47,55.63,3.17A5.8,5.8,0,0,0,50.16,0"/>
    <path class="cls-1" d="M165.24,7.64A7.39,7.39,0,0,0,157.86.27H136.52V23.85h2.94v0h19.38a7.36,7.36,0,0,0,5.33-12.45,7.3,7.3,0,0,0,1.07-3.79M158.84,18H142.65V6.15h15.21a1.5,1.5,0,1,1,0,3H145.93V15h12.91a1.49,1.49,0,1,1,0,3"/>
    <polygon class="cls-1" points="259.22 0.29 263.27 0.29 263.27 0.89 261.58 0.89 261.58 5.28 260.91 5.28 260.91 0.89 259.22 0.89 259.22 0.29"/>
    <path class="cls-1" d="M268.68,5.28V2.33c0-.14,0-.77,0-1.24h0l-1.41,4.19h-.67L265.2,1.1h0c0,.46,0,1.09,0,1.23v3h-.65v-5h1l1.43,4.23h0L268.38.29h.95v5Z"/>
  </g>
</svg>
