<svg xmlns="http://www.w3.org/2000/svg" width="207.538" height="182.413" viewBox="0 0 207.53751 182.41251"><path d="M124.174 49.016c.173-.104.49-.25.732-.25.246 0 .418.104.418.38 0 1.085-4.595 5.996-6.582 6-.173 0-.557-.037-.834-.455 1.603-1.95 3.934-4.078 6.266-5.674zm5.1-14.212c-3.13-2.508-3.236-2.097-3.685-2.097-.703 0-16.51.985-32.736.985-6.893 0-12.298-.646-15.894.904-9.03 3.9-10.48 15.788-2.98 15.534 7.897-.274 11.98-4.218 14.633-8.37.824-1.29.336-1.766-.428-.814-1.974 2.446-5.266 5.26-8.874 6.55-8.535 3.06-5.437-9.614.46-11.246 4.684-1.298 12.498.952 19.873 2.245 0 0-.557.39-.84.596-.626.49-3.69 3.17-9.017 8.317-3.17 3.07-9.474 9.127-9.474 11.322 0 .798 2.403 4.944 3.8 4.944.522 0 .173-1.118 2.89-4.627 4.564-5.925 11.593-12.788 14.38-15.496 2.373-2.3 5.538-4.875 6.62-4.875.888 0 2.13-.035 3.54-.096-5.55 4.984-14.624 13.36-18.96 19.696-.206.31-.312.625-.312.798 0 1.284 2.3 3.132 2.96 3.132.383 0 .976-1.39 1.255-1.702 4.843-5.92 7.907-8.53 10.622-9.683-2.363 2.336-5.048 4.912-5.048 7.107 0 1.736 1.013 4.173 2.993 4.173 1.634 0 5.17-2.562 7.286-4.512.183 1.47 3.32 4.832 4.806 4.832 3.41 0 6.854-2.444 9.398-4.77 1.428-1.293 2.817-2.895 2.817-3.28 0-.13-.03-.346-.304-.346-.32 0-3.662 3.098-10.03 5.438-.425.13-1.186.347-1.812.347-1.076 0-1.362-.736-1.362-1.293 0-.624.388-1.498 1.048-2.507.764.807 1.81 1.224 2.543 1.224 2.61 0 8.353-4.737 8.353-8.084 0-.448-.105-1.043-1.352-2.19-.88-.98-1.85-1.71-2.58-1.71-1.327 0-3.453 1.114-6.236 3.62-1.418 1.28-2.784 2.66-3.78 4.152-.355.543-1.566 2.258-2.74 3.162-2.017 1.565-4.177 2.994-4.872 2.994-.247 0-.455-.13-.455-.485 0-1.778 5.33-5.952 7-7.383.592-.52.734-.695.734-1.113 0-1.43-2.02-2.542-3.102-2.542-1.814 0-3.134.832-5.4 1.944.886-1.12 4.19-3.46 8.926-7.96 1.476-1.396 3.305-2.855 5.72-3.53 3.17-.228 6.377-.5 8.924-.798.904-.104 2.368-.416 2.368-.833 0-.565-1.222-1.292-1.675-1.676M113.09 113.92h7.145c1.324 0 1.825.09 2.095.362.41.457.507 1.143.507 2.784 0 1.64-.097 2.33-.507 2.778-.27.274-.77.37-2.095.37h-7.144v-6.295zm-33.513 8.53l2.357-7.392h2.234l2.293 7.39h-6.883zm76.037-8.44c2.058 0 2.83.136 3.288.59.503.51.683 1.83.683 8.26 0 6.38-.18 7.744-.683 8.25-.455.45-1.227.59-3.288.59h-7.43l-.087-17.69h7.517zM116.56 131.7h-3.467v-4.925h5.357l7.07 12.037h31.61c4.6 0 7.066-.594 8.98-2.513 2.18-2.182 3.327-5.468 3.327-13.436 0-7.98-1.146-11.266-3.326-13.455-1.914-1.92-4.38-2.51-8.98-2.51h-21.753v7.113h3.372v17.69h-6.428l-4.835-8.204c3.693-.73 5.197-2.106 5.197-7.75 0-3.976-.452-5.748-1.865-7.165-1.234-1.23-3.015-1.687-5.744-1.687h-24.7v7.113h3.37v17.69H99l-8.422-24.94H76.223l-8.455 24.94h-3.644v7.11h15.904v-6.973H77.11l.73-2.735h10.353l.775 2.735H86.05v6.973h30.51v-7.11M122.04 94.05c-.28.28-.73.37-2.1.37h-4.598c-1.366 0-1.817-.09-2.096-.37-.322-.317-.55-1.276-.55-8.297 0-6.973.23-7.975.55-8.295.28-.27.728-.366 2.096-.366h4.6c1.365 0 1.818.097 2.098.366.32.32.548 1.322.548 8.295 0 6.977-.23 7.978-.548 8.298zm1.547-24.25h-11.894c-3.324 0-4.692.5-5.92 1.736-1.88 1.82-2.92 5.418-2.92 14.22 0 8.8 1.04 12.405 2.92 14.224 1.226 1.237 2.596 1.734 5.92 1.734h11.894c3.324 0 4.7-.497 5.923-1.734 1.878-1.82 2.923-5.423 2.923-14.225s-1.045-12.4-2.923-14.22c-1.224-1.236-2.6-1.735-5.923-1.735" fill="#fff"/><path d="M67.656 114.01h3.237V106.9h-15.96v7.02h2.783l-3.788 5.477h-.182l-3.506-5.476h2.778v-7.022H36.45v7.113h3.164l9.258 12.726v4.966H45.27v7.11h16.55V131.7h-3.604v-5.103l9.44-12.586M64.124 94.6H55.53V76.91h8.594v-7.113H36.448v7.113h8.6V94.6h-8.6v7.112h27.676v-7.11M156.215 76.906h3.145v9.21l-10.61-16.32h-14.507v7.112h3.37V94.6h-3.37v7.11h15.22l-.044-7.11h-3.37V83.523l11.24 18.19h10.498V76.91h3.295v-7.117h-14.868v7.113M79.412 76.82h7.138c1.324 0 1.828.09 2.1.37.408.45.5 1.13.5 2.778 0 1.64-.092 2.327-.5 2.778-.272.277-.774.366-2.098.368h-7.14V76.82zm5.357 12.856l7.06 12.036h9.858v-7.11h-3.05l-4.833-8.21c3.69-.73 5.194-2.09 5.194-7.752 0-3.966-.452-5.745-1.87-7.162-1.23-1.22-3.01-1.68-5.743-1.68H66.692v7.112h3.37v17.692h-3.37v7.11h16.182v-7.11h-3.462v-4.926h5.357" fill="#fff"/><path d="M81.934 115.058l-2.357 7.39h6.884l-2.292-7.39h-2.234M88.648 82.746c.41-.45.502-1.14.502-2.778 0-1.648-.092-2.328-.502-2.78-.27-.278-.774-.367-2.098-.367h-7.138v6.294h7.14c1.324-.002 1.825-.09 2.096-.368M118.742 55.145c1.986-.003 6.582-4.914 6.582-5.998 0-.277-.17-.38-.418-.38-.24 0-.56.145-.732.25-2.332 1.595-4.663 3.722-6.266 5.674.277.42.66.455.834.455M119.94 77.092h-4.598c-1.368 0-1.817.097-2.096.366-.32.32-.55 1.322-.55 8.295 0 7.02.228 7.98.55 8.298.28.28.73.37 2.096.37h4.6c1.367 0 1.818-.09 2.098-.37.317-.32.548-1.32.548-8.297 0-6.973-.23-7.975-.548-8.295-.28-.27-.733-.366-2.1-.366M122.33 119.844c.41-.45.507-1.137.507-2.778 0-1.64-.097-2.327-.507-2.784-.27-.27-.77-.363-2.095-.363h-7.144v6.293h7.145c1.324 0 1.824-.095 2.095-.37M155.614 131.7c2.06 0 2.834-.14 3.29-.59.5-.506.68-1.87.68-8.25 0-6.43-.18-7.75-.68-8.26-.46-.454-1.23-.59-3.29-.59h-7.516l.086 17.69h7.43" fill="#263241"/><path d="M171.083 76.91h-3.295v24.802h-10.5l-11.238-18.19V94.6h3.37l.043 7.11h-15.22V94.6h3.37V76.907h-3.37v-7.113h14.508l10.61 16.322v-9.21h-3.145v-7.114h14.867v7.117zM36.448 94.6h8.6V76.91h-8.6v-7.113h27.676v7.113H55.53V94.6h8.594v7.112H36.448v-7.11zm25.372 37.1v7.112H45.27v-7.11h3.602v-4.966l-9.258-12.725H36.45V106.9H53.02v7.02H50.24l3.506 5.477h.182l3.788-5.476h-2.782v-7.022h15.96v7.113h-3.238l-9.44 12.587v5.103h3.604zM82.874 94.6v7.112H66.692v-7.11h3.37V76.91h-3.37v-7.113h24.695c2.733 0 4.514.46 5.742 1.68C98.547 72.896 99 74.675 99 78.64c0 5.662-1.504 7.02-5.195 7.752l4.832 8.21h3.05v7.11h-9.856l-7.06-12.036h-5.358V94.6h3.462zm49.559-8.845c0 8.802-1.045 12.406-2.923 14.225-1.224 1.237-2.6 1.734-5.923 1.734h-11.894c-3.324 0-4.694-.497-5.92-1.734-1.88-1.82-2.92-5.423-2.92-14.225 0-8.8 1.04-12.398 2.92-14.22C107 70.3 108.37 69.8 111.693 69.8h11.894c3.324 0 4.7.5 5.923 1.736 1.878 1.82 2.923 5.416 2.923 14.22zm-3.85-48.443c-2.548.297-5.754.57-8.924.8-2.417.673-4.246 2.132-5.722 3.527-4.735 4.5-8.04 6.84-8.925 7.96 2.265-1.113 3.585-1.945 5.4-1.945 1.08 0 3.1 1.11 3.1 2.542 0 .418-.14.592-.733 1.113-1.67 1.43-7 5.605-7 7.383 0 .354.21.485.456.485.695 0 2.855-1.43 4.873-2.994 1.172-.904 2.383-2.62 2.74-3.162.994-1.492 2.36-2.873 3.778-4.152 2.783-2.506 4.91-3.62 6.237-3.62.73 0 1.7.73 2.58 1.71 1.246 1.147 1.35 1.742 1.35 2.19 0 3.347-5.743 8.084-8.352 8.084-.732 0-1.778-.417-2.543-1.224-.66 1.01-1.048 1.883-1.048 2.507 0 .557.286 1.292 1.362 1.292.626 0 1.387-.217 1.812-.348 6.368-2.34 9.71-5.438 10.03-5.438.274 0 .305.216.305.347 0 .385-1.387 1.987-2.816 3.28-2.544 2.326-5.987 4.77-9.398 4.77-1.487 0-4.622-3.36-4.807-4.832-2.118 1.95-5.652 4.512-7.287 4.512-1.98 0-2.994-2.437-2.994-4.173 0-2.195 2.684-4.77 5.047-7.106-2.715 1.155-5.78 3.765-10.622 9.684-.28.313-.872 1.702-1.255 1.702-.66 0-2.96-1.848-2.96-3.132 0-.173.106-.487.313-.798 4.335-6.335 13.41-14.712 18.96-19.697-1.41.06-2.653.095-3.542.095-1.08 0-4.245 2.576-6.62 4.876-2.785 2.71-9.814 9.572-14.377 15.497-2.718 3.51-2.37 4.627-2.892 4.627-1.395 0-3.798-4.146-3.798-4.945 0-2.196 6.304-8.253 9.474-11.323 5.327-5.147 8.39-7.828 9.018-8.316.282-.206.84-.595.84-.595-7.376-1.293-15.19-3.543-19.874-2.245-5.897 1.632-8.995 14.307-.46 11.246 3.61-1.29 6.9-4.104 8.875-6.55.764-.952 1.252-.477.428.814-2.653 4.152-6.736 8.096-14.634 8.37-7.5.254-6.05-11.635 2.98-15.534 3.596-1.55 9-.904 15.894-.904 16.227 0 32.033-.985 32.735-.985.448 0 .553-.41 3.685 2.097.453.383 1.675 1.11 1.675 1.675 0 .416-1.464.727-2.367.832zm-28.21 101.498H86.05v-6.973h2.918l-.775-2.734H77.84l-.73 2.734h2.918v6.973H64.124v-7.11h3.644l8.455-24.94h14.355l8.42 24.94h4.75v-17.69h-3.372V106.9h24.7c2.73 0 4.51.457 5.743 1.687 1.413 1.417 1.864 3.19 1.864 7.164 0 5.644-1.504 7.02-5.196 7.75l4.835 8.203h6.426v-17.69h-3.372V106.9h21.75c4.602 0 7.068.59 8.983 2.51 2.18 2.19 3.327 5.473 3.327 13.454 0 7.968-1.146 11.255-3.326 13.435-1.914 1.918-4.38 2.512-8.98 2.512h-31.61l-7.07-12.037h-5.357v4.925h3.466v7.11h-16.187zm102.46-84.32L108.466 1.16c-2.588-1.545-6.812-1.545-9.4 0L4.7 54.49C2.114 56.037 0 59.76 0 62.775v77.95c0 3.012 2.36 6.178 5.245 7.04L98.52 181.76c2.887.87 7.604.87 10.488 0l93.28-33.995c2.882-.86 5.244-4.027 5.244-7.04v-77.95c0-3.012-2.12-6.737-4.7-8.286" fill="#263241"/></svg>