<svg xmlns="http://www.w3.org/2000/svg" viewBox="0 0 240 240"><title>devfestmnfocus-logo-white</title><path d="M32.1,159H25.2v20.7h6.9c7.3,0,10.6-5.3,10.5-10.6S39.1,159,32.1,159Zm0,19.1H26.7V160.6h5.4a8.4,8.4,0,0,1,8.8,8.5C41,173.5,38.2,178.1,32.1,178.1Z" fill="#fff"/><path d="M57.3,178.5a5.8,5.8,0,0,1-6-5.4H64.5c.6-5.8-3.1-8.3-7.2-8.3a7.4,7.4,0,0,0-7.5,7.6,7.2,7.2,0,0,0,7.5,7.5,7.9,7.9,0,0,0,6.3-2.8l-1.1-.8A6.9,6.9,0,0,1,57.3,178.5Zm0-12.2c3.5,0,5.9,2,5.9,5.6H51.3A5.8,5.8,0,0,1,57.3,166.3Z" fill="#fff"/><polygon points="83 164.9 77.6 178 72.2 164.9 70.6 164.9 76.8 179.7 78.4 179.7 84.6 164.9 83 164.9" fill="#fff"/><polygon points="105.4 160.6 105.4 159 91.4 159 91.4 179.7 92.9 179.7 92.9 170.3 105 170.3 105 168.8 92.9 168.8 92.9 160.6 105.4 160.6" fill="#fff"/><path d="M119.4,164.8a7.4,7.4,0,0,0-7.5,7.6,7.2,7.2,0,0,0,7.5,7.5,7.9,7.9,0,0,0,6.3-2.8l-1.1-.8a6.9,6.9,0,0,1-5.2,2.2,5.8,5.8,0,0,1-6-5.4h13.2C127.2,167.3,123.5,164.8,119.4,164.8Zm-6,7.1a5.8,5.8,0,0,1,6-5.6c3.5,0,5.9,2,5.9,5.6Z" fill="#fff"/><path d="M140.1,178.5a6.4,6.4,0,0,1-5.4-2.5l-1,1c1.2,1.9,3.8,2.9,6.4,2.9s5.9-.8,6-4.1-3.5-3.8-6.1-4.3-4.4-.7-4.4-2.6,2.1-2.8,4.4-2.7a6.4,6.4,0,0,1,4.6,1.5l.8-.9a7.4,7.4,0,0,0-5.4-2c-3,0-5.8,1.2-5.8,4.1s2.8,3.5,5.7,3.9,4.8.8,4.7,2.9S141.9,178.5,140.1,178.5Z" fill="#fff"/><path d="M162.8,178.9l-.6-1.1a7.4,7.4,0,0,1-2.4.5c-2.5,0-3-1.3-3-3.3v-9h5.1v-1.1h-5.1v-4.4h-1.5v4.3h-3.2V166h3.2v9c0,2.8,1.1,4.7,4.5,4.7A6.7,6.7,0,0,0,162.8,178.9Z" fill="#fff"/><polygon points="180.2 167.9 173.7 159 169.3 159 169.3 179.7 173.2 179.7 173.2 164.1 179.7 173.4 180.5 173.4 187.2 164.2 187.2 179.7 191.1 179.7 191.1 159 186.6 159 180.2 167.9" fill="#fff"/><polygon points="211 159 211 171.8 200.9 159 197.7 159 197.7 179.7 201.6 179.7 201.6 165.7 212.5 179.7 212.5 179.7 214.8 179.7 214.8 159 211 159" fill="#fff"/><path d="M43.3,209.9H37l-.8-.2a.6.6,0,0,1-.3-.6.7.7,0,0,1,.1-.5h1.3l.4-.2a1.7,1.7,0,0,0,.4-1.3v-9.7a1,1,0,0,0-.7-1.1H36.3c-.2-.2-.3-.3-.3-.5s0-.5.1-.6H46.3a2.3,2.3,0,0,1,1.1.2,1.9,1.9,0,0,1,.3,1.3,7.1,7.1,0,0,1-.1,1.6,2.4,2.4,0,0,1-.3.7c0,.1-.2.2-.3.2l-.6-.2-.2-.2a2.6,2.6,0,0,0-.5-1.8c-.3-.4-.9-.5-1.7-.5H40.8c-.2.2-.3.3-.3.5s-.1.3-.1.6v4.4h.5a23.3,23.3,0,0,0,4-.3c.3.1.4.4.4,1a2.9,2.9,0,0,1-.2.9H42.2l-1.8-.2v4.4c0,.5.4.8,1.3,1l1.4.2.3.3a.4.4,0,0,1,.1.3A.8.8,0,0,1,43.3,209.9Z" fill="#fff"/><path d="M50.8,208.1a5.5,5.5,0,0,1-1.4-2.2,6.7,6.7,0,0,1-.6-2.8,9,9,0,0,1,.3-2.5,10.2,10.2,0,0,1,.8-2.1,10.1,10.1,0,0,1,1.3-1.6l1.5-1.2a7.8,7.8,0,0,1,3.7-.9,6.6,6.6,0,0,1,4.9,1.9,6.9,6.9,0,0,1,1.9,5.2,8.2,8.2,0,0,1-1.1,4.4A6.9,6.9,0,0,1,56,210a6.7,6.7,0,0,1-3-.5A6.4,6.4,0,0,1,50.8,208.1ZM52.5,198a5.6,5.6,0,0,0-.9,1.9,10.1,10.1,0,0,0-.3,2.5,8.8,8.8,0,0,0,.3,2.4,5.4,5.4,0,0,0,.8,1.9,4,4,0,0,0,3.6,1.8,4.1,4.1,0,0,0,3.6-1.6,6.7,6.7,0,0,0,1.2-4.3c0-2.9-.9-4.8-2.6-5.8a3.8,3.8,0,0,0-2.2-.5,4.6,4.6,0,0,0-2.1.4A2.9,2.9,0,0,0,52.5,198Z" fill="#fff"/><path d="M75.4,199.2v-.8a3,3,0,0,0-.2-1,1.3,1.3,0,0,0-.6-.7,4,4,0,0,0-1.8-.4,5.1,5.1,0,0,0-2.2.5,4.4,4.4,0,0,0-1.5,1.2,6.6,6.6,0,0,0-1.3,4.4,5.9,5.9,0,0,0,1.3,4.1,4.5,4.5,0,0,0,3.6,1.7,5.8,5.8,0,0,0,3.5-1,2.3,2.3,0,0,0,.7-.7c.2.1.3.3.5.6v.3a1.3,1.3,0,0,1-.3.7l-1,.9a6.8,6.8,0,0,1-3.8,1.1,6.5,6.5,0,0,1-5-2,6.9,6.9,0,0,1-1.9-5,8.6,8.6,0,0,1,2.3-6.1,8.5,8.5,0,0,1,2.5-1.7,9.1,9.1,0,0,1,2.7-.5l2.2.2a2.6,2.6,0,0,1,1.3.6,2.5,2.5,0,0,1,1.1,2.1,1.6,1.6,0,0,1-.8,1.5H75.4Z" fill="#fff"/><path d="M93.2,196.1c-.5,0-.8.5-.8,1.5v5.9a6.9,6.9,0,0,1-1.6,4.9,5.7,5.7,0,0,1-4.4,1.6,6.3,6.3,0,0,1-4-1.2c-1.3-1-2-2.7-2-5.1V197c0-.3,0-.5-.1-.6l-.4-.2h-.5l-.4-.2a.5.5,0,0,1-.3-.5.8.8,0,0,1,.2-.5h4.7c.7,0,1.1.3,1.1.8a.7.7,0,0,1-.1.5H83.4a.5.5,0,0,0-.4.2,2.3,2.3,0,0,0-.3,1.3V203a6.3,6.3,0,0,0,1.2,4.3,3.3,3.3,0,0,0,2.6,1c2.8,0,4.2-1.7,4.2-5.2v-5.9c0-.5-.2-.8-.5-.9h-.8l-.4-.2a.5.5,0,0,1-.3-.5.7.7,0,0,1,.1-.5H93l.8.2a.6.6,0,0,1,.3.6.7.7,0,0,1-.1.5Z" fill="#fff"/><path d="M103.8,199.1c0-1.5-.6-2.5-1.6-2.8a2.7,2.7,0,0,0-1.3-.2H99.7a1.9,1.9,0,0,0-.9.5,1.8,1.8,0,0,0-.7,1.5q0,1.5,2.1,2.4l1.2.6,1.7.8a7.1,7.1,0,0,1,1.4,1,3.6,3.6,0,0,1,1.4,3,3.5,3.5,0,0,1-1.6,3,6.5,6.5,0,0,1-3.8,1,8.8,8.8,0,0,1-3.3-.5,2.8,2.8,0,0,1-1.4-1.2,1.4,1.4,0,0,1-.3-.9,3.6,3.6,0,0,1,.6-2,.5.5,0,0,1,.5-.3c.4,0,.7.2.7.4a3.1,3.1,0,0,0,1.1,2.4,3.3,3.3,0,0,0,2.5.8,2.6,2.6,0,0,0,2.5-1.2,1.6,1.6,0,0,0,.2-1,1.7,1.7,0,0,0-.3-1l-.8-.9a6.8,6.8,0,0,0-2.1-1.1l-2-1a6,6,0,0,1-1.3-.9,4,4,0,0,1-1.2-2.9,3.4,3.4,0,0,1,1.5-2.9,6.5,6.5,0,0,1,3.8-1q3,0,3.9,1.2a2,2,0,0,1,.3,1.1,5.3,5.3,0,0,1-.1,1.3l-.3.7-.7.2C103.9,199.3,103.8,199.2,103.8,199.1Z" fill="#fff"/><path d="M108.8,200.2a1.6,1.6,0,0,1,.4-1.2,1.7,1.7,0,0,1,1.2-.4,1.6,1.6,0,0,1,1.5.9,1.5,1.5,0,0,1,.1.7,1.5,1.5,0,0,1-.4,1.1,1.7,1.7,0,0,1-1.2.5,1.8,1.8,0,0,1-1.2-.5A1.5,1.5,0,0,1,108.8,200.2Zm0,8.2a1.5,1.5,0,0,1,.4-1.1,1.8,1.8,0,0,1,1.2-.5,1.5,1.5,0,0,1,1.5,1,1.3,1.3,0,0,1,.1.6,1.4,1.4,0,0,1-1.6,1.6,1.7,1.7,0,0,1-1.2-.4A1.6,1.6,0,0,1,108.8,208.4Z" fill="#fff"/><path d="M122.5,209.9c-.8,0-1.3-.3-1.3-.8a.8.8,0,0,1,.2-.5h1.1l.3-.2c.3-.2.4-.7.5-1.5l1-10.3-.2-.4-.5-.2h-.8a.5.5,0,0,1-.3-.5.8.8,0,0,1,.2-.5h3.2a1.9,1.9,0,0,1,1.8.8l3.6,8.5,3.7-8.6a.6.6,0,0,1,.6-.5l.9-.2h1.9c.9,0,1.3.3,1.3.7s0,.5-.1.6h-1.1c-.2,0-.3.1-.3.2s-.3.4-.2.8l1,10.6a1.1,1.1,0,0,0,.8.9h.7l.5.3v.4a.6.6,0,0,1-.1.4H136c-.8,0-1.2-.3-1.2-.8v-.3c0-.1.1-.1.1-.2h1l.5-.2c.3-.2.4-.7.3-1.3l-.6-8.3v-1.6l-4.5,9.9h-.3a.7.7,0,0,1-.6-.2l-.5-.4a6.3,6.3,0,0,1-.7-1.2l-3.6-8.5-.8,10.6a1.5,1.5,0,0,0,.2.8l.6.3.6.2h.4a.5.5,0,0,1,.4.6.8.8,0,0,1-.2.4h-4.6Z" fill="#fff"/><path d="M154.6,206.8a5.8,5.8,0,0,1-.6,3.1H143.4a1.6,1.6,0,0,1-1.1-.4.4.4,0,0,1-.1-.3.8.8,0,0,1,.2-.6h.8q1.2,0,1.2-1.5v-10a1.1,1.1,0,0,0-.5-.9H143l-.6-.3c-.1-.1-.1-.2-.1-.4a.7.7,0,0,1,.1-.5h5.2l.8.2a.6.6,0,0,1,.3.6.7.7,0,0,1-.1.5h-1.2a.5.5,0,0,0-.4.2,2.1,2.1,0,0,0-.3,1.2v9.9a1.3,1.3,0,0,0,.4.9l1.2.2h1.6a3.1,3.1,0,0,0,2.7-1,3.7,3.7,0,0,0,.5-1.1,11.1,11.1,0,0,1,.2-1.7h1.1A11.2,11.2,0,0,1,154.6,206.8Z" fill="#fff"/><path d="M167,203.4h-3.2a1.4,1.4,0,0,1-.2-.6c0-.2.1-.3.1-.5a.4.4,0,0,1,.1-.3c.1-.3.2-.4.4-.4H167v-3.4l.6-.2h.9c.2.1.4.2.4.4v3h3.2c0,.2.1.4.1.6a.9.9,0,0,1-.1.5.4.4,0,0,1-.1.3c-.1.3-.2.4-.4.4h-2.7v3.4h-1.5c-.3-.1-.4-.2-.4-.4Z" fill="#fff"/><path d="M190.8,208.7h1.4a1,1,0,0,0,.4-.7,1.6,1.6,0,0,0-.3-.8l-.9-2.3h-6.1l-1.1,2.8-.2.5a.4.4,0,0,0,.1.3h.8l.8.2a.5.5,0,0,1,.4.6.6.6,0,0,1-.1.4h-4.3c-.9,0-1.3-.3-1.3-.8a.7.7,0,0,1,.1-.5h1l.4-.2a8.5,8.5,0,0,0,.6-1.3l4.8-11.6c.1-.4.5-.6,1.1-.7h.6c.4,0,.6.1.7.3l1,2.4c1.9,4.4,3,7,3.2,7.8l.9,2.2c.2.5.3.9.5,1l.3.2h.9c.2.2.3.3.3.5a.7.7,0,0,1-.1.5h-5.8c-.2-.1-.2-.2-.2-.3S190.7,208.8,190.8,208.7Zm.1-5.3-2.6-6.3-2.5,6.3Z" fill="#fff"/><path d="M203.8,209.9h-5l-.8-.2a.6.6,0,0,1-.3-.6.7.7,0,0,1,.1-.5H199l.4-.2a2.1,2.1,0,0,0,.3-1.2v-10c0-.5-.2-.8-.5-.9s-.2-.1-.3-.1h-.5l-.4-.2a.5.5,0,0,1-.3-.5.8.8,0,0,1,.2-.5h4.9l.8.2a.6.6,0,0,1,.3.6.7.7,0,0,1-.1.5h-.9q-.9,0-.9,1.5v10c0,.5.1.8.4.9h.8l.4.2a.5.5,0,0,1,.3.5A.7.7,0,0,1,203.8,209.9Z" fill="#fff"/><path d="M177.4,89.2l.4.3Z" fill="none"/><path d="M177.3,90.5h.1l.8-.7-.3-.3Z" fill="none"/><path d="M159.4,103h0l.3.5a1.7,1.7,0,0,0,.2.5l.3.5c.1.1.1.3.2.4l.2.3.3.7v.2l.3.6a.1.1,0,0,0,.1.1,6.4,6.4,0,0,0,.2.7h.1a1.7,1.7,0,0,1,.2.5h.1a1.4,1.4,0,0,1,.2.6h.1c.1.1.1.3.2.4h0c.1.1.1.3.2.4h0l.2.3h0a111,111,0,0,0,12.5-16.6h-.1l-.5.4h-.1l-.5.4H174l-.6.4h-.1l-.7.4h-.1l-.6.4h-.2l-.8.5h-.1l-.7.4-.2.2-.9.5h0l-.9.5h-.2l-.9.5h-.1l-1,.6h-.3l-.8.4-.3.2-1.1.5h-.1l-1.1.5-.3.2-1.1.5h-.1l-1.2.6h-.1Z" fill="none"/><path d="M138.8,129.7a109.7,109.7,0,0,0,23.1-18.2.4.4,0,0,1-.1-.3h-.1a.4.4,0,0,0-.1-.3h0v-.3h-.1c0-.2-.1-.3-.1-.5h-.1c0-.1-.1-.2-.2-.4h0c-.1-.2-.2-.3-.2-.5h-.1l-.3-.6h0l-.3-.6H160l-.3-.7h0l-.4-.8h0a3,3,0,0,1-.4-.8h-.1c-.2-.3-.3-.7-.5-1l-16.9,22.4Z" fill="none"/><path d="M101.6,133.6l.6,1,1,1.7.5.8c.6.8,1.1,1.7,1.6,2.5s.2.1.2.2l1.4,2a101.8,101.8,0,0,0,26.7-9.2H101Z" fill="none"/><path d="M100.1,45.6a4.1,4.1,0,0,0-.5.9c-.5,1-1.1,2-1.6,3.1v.2l-1.4,2.9c-.1.3-.3.5-.4.8a10.8,10.8,0,0,0-.8,1.9,210.5,210.5,0,0,1,28.8,6.2c-.1-.1-.2-.3-.4-.4l-1.1-1-1.8-1.5-1.2-1-1.8-1.5-1.2-1-1.9-1.5-1.2-.9-2-1.5-1.1-.9-2.5-1.8-.7-.5-3.3-2.2-.7-.5L101,43.9Z" fill="none"/><path d="M177.8,89.5l-.4-.3h-.3l-.2-.2a.1.1,0,0,1-.1-.1h-.2l-.2-.2h-.2a.1.1,0,0,0-.1-.1l-.2-.2-.2-.2h-.3l-.2-.2-.2-.2h-.2l-.3-.2c0-.1-.1-.1-.2-.2l-.3-.2-.2-.2-.3-.2-.2-.2-1.2-.8-.3-.2-.3-.2-.3-.2-.4-.3-.3-.2-.3-.2-.4-.2-.3-.3-.4-.2-.4-.2-.3-.3-.4-.2-.4-.3-.4-.2-.4-.3-.4-.2-.5-.3-.4-.3-.4-.2-.5-.3-.5-.3-.5-.3-.8-.5-.3-.2-.6-.3-.4-.2-.6-.4-.5-.2-.5-.3-.5-.3-.6-.3-.4-.2-.4-.2-1.1,1.5-.8,1.1-1.9,2.4-.3.5-2.2,2.8-.7.9-1.4,1.7.6.9.6.7a8.3,8.3,0,0,0,.8,1.2l.5.7a13,13,0,0,0,1,1.5l.2.3,1.2,1.9.3.4.9,1.5.4.6a7.5,7.5,0,0,0,.7,1.2l.4.8.6,1a5.6,5.6,0,0,0,.5.8l.2.4h0l.2.4h.2l.5-.2.5-.3.4-.2.5-.2.5-.2.4-.2.4-.3.5-.2.4-.2.4-.2.4-.2.5-.2.4-.3.4-.2.3-.2.4-.2.4-.2.4-.2.3-.2.4-.2.4-.2.3-.2.3-.2.4-.2.3-.2.3-.2.3-.2.4-.2.3-.2.3-.2.3-.2h.2l.3-.2.3-.2.3-.2h.2l.3-.2.2-.2.3-.2h.1l.6-.5h.2l.2-.2h.3c0-.1.1-.1.2-.2s.1-.1.2-.2h.2c0-.1.1-.1.2-.1l.2-.2h.1c.1-.1.2-.1.2-.2h.2c0-.1.1-.1.2-.1v-.2h.5v-.2h.5l.6-1Z" fill="none"/><path d="M78.3,53.3c0-.5-.1-1-.1-1.4h0V49.9c0-.4-.1-.8-.1-1.2V42.4a2.8,2.8,0,0,1,.1-.9V40.1h0V38.7c0-.2.1-.5.1-.8V36.8h0c0-.3.1-.5.1-.8V35h0c0-.2.1-.5.1-.7v-.7h0A109.2,109.2,0,0,0,68.6,53h4.9l2.6.2h2.2Z" fill="none"/><path d="M75.6,140.4v-2.6h0v-5.1a3.7,3.7,0,0,0,.1-1.1V130a.4.4,0,0,0,.1-.3v-1.5a6.6,6.6,0,0,0,.1-1.4v-.2a6.2,6.2,0,0,0,.1-1.3.9.9,0,0,1,.1-.5,5.7,5.7,0,0,1,.1-1.3v-.3c0-.5.1-1,.1-1.6a.4.4,0,0,1,.1-.3,6.1,6.1,0,0,1,.1-1.4v-.3h-.4l-4.5.2H66.4a112.3,112.3,0,0,0,9.2,21.4v-.9Z" fill="none"/><path d="M98,133.8l-.8.5-2.7,1.6-.9.5-1.9,1.1-1.1.6-1.6.8-1.2.6-1.6.9-1.2.5-1.7.8-1,.5-1.9.9-.9.4h-.2l7.2.2a108,108,0,0,0,18.9-1.7,10.5,10.5,0,0,0-.8-1.1,4.1,4.1,0,0,0-.5-.9,13.7,13.7,0,0,1-1.3-2l-.3-.5c-.6-.8-1.1-1.7-1.6-2.5l-.4-.7-.9-1.6Z" fill="none"/><path d="M154.8,74.9l-1.1-.5-3.4-1.7-.7-.2-2.9-1.4-1.3-.5-2.3-1-1.5-.6-2.2-.9-1.6-.6-2.2-.8-1.6-.5-2.3-.8-1.5-.5-.7-.2a163.1,163.1,0,0,1,19.3,21.7l1.1-1.5.8-.9,2-2.6.2-.2,2.1-2.8.6-.9,1.2-1.6Z" fill="none"/><path d="M91.5,56.2H90.2l-2.7-.3h-.9L83,55.3h-.7L79.7,55c.1.8.1,1.7.2,2.5v1.1l.3,3.9c0,.3.1.6.1.9l.3,3.1c0,.5.1,1,.1,1.5l.3,2.4a8.8,8.8,0,0,1,.2,1.6,18.5,18.5,0,0,0,.4,2.3,8.8,8.8,0,0,0,.2,1.6,14.3,14.3,0,0,0,.4,2.2,9.9,9.9,0,0,0,.2,1.7,17,17,0,0,1,.4,2.2l.3,1.6c.1.2.1.4.2.6a190.4,190.4,0,0,1,10-27.7Z" fill="none"/><path d="M136.7,45.2a100.2,100.2,0,0,0-29.8-11.5c-.3.5-.7,1-1,1.6a.5.5,0,0,0-.2.4c-.5.8-1,1.5-1.4,2.3l-.3.6-1.1,1.8a5.9,5.9,0,0,0-.4.8l-.7,1.1,8.2.7Z" fill="none"/><path d="M159,75.5l1.5.8h.1l1.3.7.3.2,1.4.8h.1l1.2.8h.2l1.3.8h0l1.2.7.2.2a4.1,4.1,0,0,1,1.1.7h.1l1,.7h.2l1,.7h.1l.9.6h.2l.8.6h.1l.7.5.2.2.8.5h0l.6.5h.2l.6.5h0l.6.4h0a103.7,103.7,0,0,0-13-19.3h0v.2h-.1l-.3.4v.6l-.2.2-.2.3-.3.4c0,.1-.1.2-.1.3s-.2.2-.2.3l-.2.3-.2.3a1,1,0,0,0-.4.5l-.2.3-.3.4-.2.3-.3.5-.2.2-.5.7v.3a1,1,0,0,0-.4.5l-.2.3-.2.2Z" fill="none"/><path d="M83.9,87.2a164.2,164.2,0,0,0,9.4,30,288.1,288.1,0,0,0,30.4-4.4,253.7,253.7,0,0,0,24.2-25.3,169.2,169.2,0,0,0-21.4-23.8,206.6,206.6,0,0,0-31.8-7A196.9,196.9,0,0,0,83.9,87.2Z" fill="none"/><path d="M84.9,32.8l1.1.6,1.4.8,1.1.6,1.5.8,1.1.6,1.5.9,1,.6,1.9,1.2.5.3,2.4,1.4.8.5a5.7,5.7,0,0,0,1.3.8l.7-1.3.4-.7,1.4-2.4.3-.5,1-1.8.6-.9.6-.9a102.1,102.1,0,0,0-20.6-2.1H82.3l1,.5Z" fill="none"/><path d="M158,74.2l.5-.6.2-.3.3-.5.2-.2.4-.6a.3.3,0,0,0,.1-.2l.5-.6V71l.3-.5.2-.2.3-.4v-.2l.3-.4h0l.7-1h0l.3-.4h0c.1-.2.2-.3.2-.4h.1l.3-.5a101.6,101.6,0,0,0-21.3-18.5l16.1,26.2h0Z" fill="none"/><path d="M126.4,112.2l2.2-.5.7-.2,1.5-.3.9-.3,1.3-.3,1-.2,1.2-.4,1-.2,1.2-.4.9-.2,1.2-.4.9-.3,1.2-.3.9-.3,1.1-.4.9-.2,1.2-.4.8-.3,1.3-.5.7-.2,1.9-.7h.4l1.5-.6.7-.3,1.2-.5.7-.3,1.1-.4.8-.4.6-.3-.3-.7-.5-.7-.6-1.1-.4-.7-.8-1.3-.3-.5-1.1-1.8a.3.3,0,0,1-.1-.2l-1.1-1.6a4.3,4.3,0,0,1-.4-.7,10.5,10.5,0,0,0-.8-1.1l-.5-.8a10.5,10.5,0,0,1-.8-1.1l-.5-.7-.5-.7A239.9,239.9,0,0,1,126.4,112.2Z" fill="none"/><path d="M83,53.9l3.3.3h.4l3.7.4,1.2.2,2.2.3.7-1.4a13,13,0,0,1,.8-1.7L96.8,49l.3-.7c.5-.8.9-1.6,1.3-2.4a5.4,5.4,0,0,0,.5-1.1,8.3,8.3,0,0,0,.7-1.3h0l.2-.3-1.3-.9-.8-.5-1.8-1.1-.7-.5-2.5-1.5h0l-2.6-1.5-.6-.3-2-1.1-.9-.5-1.7-.9-1.1-.6L82.2,33l-1.1-.6L80,31.9h0v.3h0v.4a.4.4,0,0,0-.1.3h0v.4h0v1.7a1.3,1.3,0,0,1-.1.6h0v1.5c0,.1-.1.3-.1.4v2.6a.4.4,0,0,0-.1.3v9.7a4.5,4.5,0,0,1,.1,1.1v2l2.1.2Z" fill="none"/><path d="M105.5,45.3l1.8,1.3,1.5,1,1.8,1.3,1.4,1,1.8,1.4,1.4,1.1,1.8,1.4,1.3,1,1.9,1.6,1.2,1,2.2,1.9.7.6,2.9,2.6,3.9,1.2,1,.4,2.9,1,1.4.5,2.4.9,1.6.6,2.2.8,1.6.7,2.1.9,1.7.7,2,.9,1.6.8,2,.9,1.6.8.8.4L139.3,46.7l-34-2.7-2-.2.7.5Z" fill="none"/><path d="M98.6,131.2h0c-.4-.9-.9-1.7-1.4-2.6v-.3c-.6-1-1.1-2-1.6-3h0L94,122.1v-.2l-1.4-3a.4.4,0,0,0-.1-.3l-2.3.2H88.9l-3.8.3h-.5l-3.3.2H77.9a19.4,19.4,0,0,0-.2,2.4h0c-.1.4-.1.8-.2,1.2h0a4.9,4.9,0,0,1-.1,1.2h0c-.1,1.2-.1,2.4-.2,3.6h0a3.7,3.7,0,0,1-.1,1.1h0c0,1.5-.1,2.8-.1,4.1h0v.9h0a23.5,23.5,0,0,0-.1,2.6h0v.6h0v.7h0c0,.5.1.9.1,1.3h0v.5h0v.4h0v.9h0v.3h0a.4.4,0,0,1,.1.3h0l1.1-.5,1.3-.5,1.6-.7,1.2-.6,1.8-.8,1-.5,2.2-1.1.6-.3,5.7-3.2.8-.4,2-1.2,1.1-.7,1.4-.8h0Z" fill="none"/><path d="M62,89.7a103.2,103.2,0,0,0,4,28.8H76L62,89.6Z" fill="none"/><path d="M156.3,104.3l-.9.4-.7.3-1.3.5-.6.2-1.7.7h-.2l-2,.7-.6.2-1.3.5-.8.2-1.3.5-.8.2-1.2.4-.9.3-1.2.4-.9.2-1.2.4-1,.3-1.2.3-.9.3-1.3.3-.9.2-1.4.4-.9.2-1.4.3-.8.2-2.1.5h-.2l-2.2.5-2.8,2.5-.7.5-2.2,1.9-1.1.9-1.8,1.5-1.2.9-1.8,1.4-1.2.9-1.7,1.3-1.3.9-1.6,1.2-1.3.9-1.7,1.1-1.3.9-.6.4H136l2-2.6Z" fill="none"/><path d="M76.9,54.8H73.3l-2.7-.2H68.1a100.4,100.4,0,0,0-5.9,29.3L77.9,54.9Z" fill="none"/><path d="M80.2,118.1h1.1l3.7-.2h.4l3.3-.2h1.2l2-.2a163.3,163.3,0,0,1-8.8-27.2,1.4,1.4,0,0,1-.2.6l-.3,1.5a15.5,15.5,0,0,0-.5,2.3,8.3,8.3,0,0,0-.4,1.5c-.2.7-.3,1.5-.5,2.2l-.3,1.6c-.1.7-.3,1.5-.4,2.3l-.3,1.4c-.2.9-.3,1.7-.5,2.5a5.9,5.9,0,0,1-.2,1.3c-.1,1.1-.3,2.1-.5,3.2a1.3,1.3,0,0,1-.1.6c-.1,1.2-.3,2.5-.5,3.7s-.1.8-.1,1.2l-.3,2.2Z" fill="none"/><path d="M94,118.8l1.2,2.7c.1.2.2.3.2.5s.9,1.9,1.4,2.8a.1.1,0,0,0,.1.1,24.4,24.4,0,0,0,1.4,2.8l.2.3c.4.9.9,1.8,1.4,2.7s.1.1.1.2l1.7-1.1.9-.6,2.9-1.9.3-.3,2.6-1.8,1-.8,1.9-1.4,1.1-.9,1.8-1.3,1.2-1,1.6-1.3,1.3-1,1.6-1.4,1.2-1,.6-.5c-8.7,1.7-18.1,3-27.8,3.9A.4.4,0,0,0,94,118.8Z" fill="none"/><path d="M77.2,114l.3-2.2a11.1,11.1,0,0,1,.2-1.7L78,108l.3-1.7c.1-.8.3-1.5.4-2.3l.3-1.6c.1-.8.3-1.5.4-2.3a7.5,7.5,0,0,0,.4-1.6,20.5,20.5,0,0,1,.5-2.4l.3-1.4c.2-1,.5-2,.7-3s.1-.6.2-.8l.9-3.8c-.2-1.2-.5-2.5-.7-3.7s-.1-.6-.2-.9-.3-2-.5-3a7.8,7.8,0,0,1-.2-1.4,23.4,23.4,0,0,1-.4-2.6L80.1,74l-.3-2.4c-.1-.6-.1-1.1-.2-1.7l-.3-2.3c0-.6-.1-1.2-.1-1.7l-.3-2.4c0-.5-.1-1.1-.1-1.7s-.1-1.5-.2-2.3-.1-1.2-.1-1.8-.1-.6-.1-1L65.8,79.9l-3.7,6.8L66.6,96l10.2,20.8c.1-.4.1-.7.2-1.1A11.1,11.1,0,0,1,77.2,114Z" fill="none"/><path d="M107.7,32.4h0l-1-.2h0Z" fill="#fff"/><path d="M99.2,41.1l1.3.9.7-1.4-.7,1.3A5.7,5.7,0,0,1,99.2,41.1Z" fill="#fff"/><path d="M99.8,43.2l-1.3-.9,1.3.9Z" fill="#fff"/><path d="M81.1,32.4,80,31.8h0Z" fill="#fff"/><path d="M101.8,42.3h0l.7-1.1Z" fill="#fff"/><path d="M106.9,33.7c-.3.5-.7,1-1,1.6s.7-1.1,1-1.6Z" fill="#fff"/><path d="M82.3,31.5h2.6a102.1,102.1,0,0,1,20.6,2.1l-.6.9,1.1-1.8.2-.4A107.6,107.6,0,0,0,84.9,30H80.2v.3Z" fill="#fff"/><path d="M101,43.9l-.9,1.7.9-1.7Z" fill="#fff"/><path d="M79.6,53.6h0l2.1.2Z" fill="#fff"/><path d="M99.6,43.5a8.3,8.3,0,0,1-.7,1.3,8.3,8.3,0,0,0,.7-1.3Z" fill="#fff"/><path d="M93.8,55.2l-2.2-.3,2.2.3.7-1.4Z" fill="#fff"/><path d="M93.3,56.5l-1.8-.3,1.8.3Z" fill="#fff"/><path d="M82.3,55.2,79.7,55h0Z" fill="#fff"/><path d="M95.3,55.4h0a10.8,10.8,0,0,1,.8-1.9A10.8,10.8,0,0,0,95.3,55.4Z" fill="#fff"/><path d="M82.2,33l1.6.8,1.1.6,1.7.9.9.5,2,1.1.6.3,2.6,1.5h0l2.5,1.5.7.5,1.8,1.1.8.5,1.3.9.2-.5v-.5h.3l.2-.2-1.3-.9-.8-.5L96,39.2l-.5-.3-1.9-1.2-1-.6-1.5-.9L90,35.6l-1.5-.8-1.1-.6L86,33.4l-1.1-.6L83.3,32l-1-.5-2.1-1.1v.5a6.2,6.2,0,0,1-.1.9l1.1.6Z" fill="#fff"/><path d="M106.9,33.7a100.2,100.2,0,0,1,29.8,11.5h1.7l-.8-1.2a107,107,0,0,0-29.9-11.7l-.6.9C107.1,33.4,107,33.5,106.9,33.7Z" fill="#fff"/><path d="M106.2,32.1Z" fill="#fff"/><path d="M99.8,43.2l-.2.3h0l.2-.3Z" fill="#fff"/><polygon points="101.8 42.3 101.8 42.3 110 43 101.8 42.3" fill="#fff"/><polygon points="99.8 43.2 99.8 43.2 99.8 43.2 99.8 43.2 99.8 43.2" fill="#fff"/><path d="M104.9,34.3l-.6.9-1,1.8-.3.5-1.4,2.4-.4.7-.7,1.4h0l.4.2h.9l.7-1.1a5.9,5.9,0,0,1,.4-.8l1.1-1.8.3-.6c.4-.8.9-1.5,1.4-2.3a.5.5,0,0,1,.2-.4c.3-.6.7-1.1,1-1.6h0c.1-.2.2-.3.2-.4l.6-.9-1-.2h-.5l-.2.4Z" fill="#fff"/><path d="M99.8,43.2h0l-.2.3h0Z" fill="#fff"/><path d="M99.8,43.2h0c.1-.2.2-.3.2-.4h0l-.2.5Z" fill="#fff"/><path d="M100.3,42.2l.2-.2h0l-.2.2Z" fill="#fff"/><path d="M156.8,75.9l-2-1,2,1Z" fill="#fff"/><path d="M129.5,64.6h0l.7.2Z" fill="#fff"/><path d="M127.2,62.5l-2.9-2.6,2.9,2.6,3.9,1.2Z" fill="#fff"/><polygon points="136.7 45.2 136.7 45.2 110 43 136.7 45.2" fill="#fff"/><path d="M103.3,43.8h0l.7.5Z" fill="#fff"/><path d="M158,76.6h0l.4.2h0Z" fill="#fff"/><path d="M103.2,45.4,101,43.9h0Z" fill="#fff"/><path d="M139.3,46.7,156,74l-.8-.4.8.4L139.3,46.7l-34-2.7Z" fill="#fff"/><path d="M124.2,61.6l-.5-.4c.2.1.3.3.4.4Z" fill="#fff"/><polygon points="101 43.9 101 43.9 101 43.9 101 43.9 101 43.9" fill="#fff"/><path d="M100.3,42.2H100v.5h.1A.8.8,0,0,0,100.3,42.2Z" fill="#fff"/><path d="M101.6,42.7h0l1.7,1.1h0l2,.2,34,2.7-.9-1.4h-1.7L110,43l-8.2-.7a.8.8,0,0,1-.2.4Z" fill="#fff"/><path d="M101.1,42.4l.5.3a.8.8,0,0,0,.2-.4h-.7Z" fill="#fff"/><polygon points="101.6 42.7 101.6 42.7 101.6 42.7 101.6 42.7 101.6 42.7" fill="#fff"/><path d="M100.1,42.6l.2-.4h0a.8.8,0,0,1-.2.4H100A.3.3,0,0,0,100.1,42.6Z" fill="#fff"/><path d="M101.6,42.7h0l-.5-.3h0Z" fill="#fff"/><path d="M80,31.9Z" fill="#fff"/><path d="M68.1,54.4Z" fill="#fff"/><path d="M79.6,53.6h0v0Z" fill="#fff"/><path d="M77.9,54.9h0Z" fill="#fff"/><path d="M78.3,53.5h0v0Z" fill="#fff"/><path d="M67,53.4h0l-.3.9h0l.3-.9Z" fill="#fff"/><path d="M69.9,53.1H68.6a109.2,109.2,0,0,1,9.9-19.6h0c.1-1.1.2-1.9.2-2.3h-.2A103.2,103.2,0,0,0,67.2,53h2.7Z" fill="#fff"/><polygon points="80 31.8 80 31.8 80 31.9 80 31.9 80 31.8" fill="#fff"/><path d="M79.6,51.8v1.8h0v-2a4.5,4.5,0,0,0-.1-1.1V40.8a.4.4,0,0,1,.1-.3V37.9c0-.1.1-.3.1-.4V36h0a1.3,1.3,0,0,0,.1-.6V33.6h0v-.4h0a.4.4,0,0,1,.1-.3v-.4h0v-.3h0l-.9-.5-.4-.2c0,.4-.1,1.2-.2,2.3v.7c0,.2-.1.5-.1.7h0v.9c0,.3-.1.5-.1.8h0v1.1c0,.3-.1.6-.1.8v1.4h0v1.4a2.8,2.8,0,0,0-.1.9v6.3c0,.4.1.8.1,1.2v1.9h0c0,.4.1.9.1,1.4v.2h.3Z" fill="#fff"/><path d="M79.7,30.1h-.6l-.2.2h0c-.1.1-.1.1-.1.2l-.3.5h.2l.4.2.9.5h0a6.2,6.2,0,0,0,.1-.9v-.8Z" fill="#fff"/><path d="M164.6,66.4h0v-.2l-.6-.5.6.5Z" fill="#fff"/><path d="M157.9,74.5h0L141.8,48.3a101.6,101.6,0,0,1,21.3,18.5l.3-.5.4-.7A103.1,103.1,0,0,0,142.3,47h-1.4Z" fill="#fff"/><path d="M140.2,45.7l.7,1.2h1.4l-1.3-.9-.9-.5Z" fill="#fff"/><path d="M139.6,45.4h.2l-2.2-1.3.8,1.2Z" fill="#fff"/><path d="M157.6,74.8l.3-.3-17-27.6-1.6-.2L156,74Z" fill="#fff"/><path d="M138.4,45.3l.9,1.4,1.6.2-.7-1.2h-1.8Z" fill="#fff"/><path d="M67.2,53l-.2.4a.8.8,0,0,0,.2-.4Z" fill="#fff"/><polygon points="78.4 56.7 65.8 79.9 78.4 56.7 78.4 56.7" fill="#fff"/><path d="M68.1,54.4h2.5l2.7.2h4.6l.4-.8h0v-.5H76.1l-2.6-.2H67.2a.8.8,0,0,1-.2.4h0l-.3.9h1.4Z" fill="#fff"/><path d="M78.6,53.6h-.3V54h.1Z" fill="#fff"/><path d="M79.8,54.4V55l2.6.2H83l3.6.4h.9l2.7.3h1.3l1.8.3h0l.3-.9a.8.8,0,0,0,.2-.4l-2.2-.3-1.2-.2-3.7-.4h-.4L83,53.9H81.7l-2.1-.2a1.1,1.1,0,0,1,.1.5Z" fill="#fff"/><path d="M79.7,54.1a1.1,1.1,0,0,0-.1-.5h0v.5Z" fill="#fff"/><path d="M79.8,54.4v-.3h0v.1Z" fill="#fff"/><path d="M78.3,54Z" fill="#fff"/><path d="M79.7,54.1h0v.2h0Z" fill="#fff"/><path d="M78.4,53.9h-.1Z" fill="#fff"/><path d="M82.4,87.1l-.9,3.8c.3-1.3.6-2.5,1-3.8s-.6-2.5-.8-3.7C81.9,84.6,82.2,85.9,82.4,87.1Z" fill="#fff"/><polygon points="77.9 54.9 77.9 54.9 62.2 83.7 62.2 83.7 77.9 54.9" fill="#fff"/><path d="M83.1,90.1c-.1.2-.1.4-.2.6a1.4,1.4,0,0,0,.2-.6Z" fill="#fff"/><path d="M78.3,116l-.3,2.2h0Z" fill="#fff"/><path d="M79.7,55a21.1,21.1,0,0,0,.2,2.5c-.1-.8-.1-1.7-.2-2.5Z" fill="#fff"/><path d="M83.2,84.2h.1c-.1-.2-.1-.4-.2-.6A1.3,1.3,0,0,1,83.2,84.2Z" fill="#fff"/><path d="M78.4,56.7h0c0,.4.1.7.1,1A3.4,3.4,0,0,0,78.4,56.7Z" fill="#fff"/><polygon points="65.8 79.9 62.1 86.7 66.6 96 62.1 86.7 65.8 79.9" fill="#fff"/><path d="M76.8,116.8h0c.1-.3.1-.7.2-1.1S76.9,116.4,76.8,116.8Z" fill="#fff"/><polygon points="79.7 55 79.7 55 79.7 55 79.7 55 79.7 55" fill="#fff"/><polygon points="77.9 54.9 77.9 54.9 77.9 54.9 77.9 54.9 77.9 54.9" fill="#fff"/><path d="M78.8,53.6h.8V51.8l-1,1.8Z" fill="#fff"/><path d="M78.3,54.9v.8h0a2.2,2.2,0,0,0-.1-.8Z" fill="#fff"/><path d="M77.9,54.9h.4v-.5h0v-.2l-.4.8Z" fill="#fff"/><path d="M79,53.6h0Z" fill="#fff"/><path d="M78.3,54.4v.5h0Z" fill="#fff"/><path d="M78.6,53.6l-.2.3.4-.3Z" fill="#fff"/><path d="M79.7,55v-.4h0V55Z" fill="#fff"/><path d="M79.4,55h0Z" fill="#fff"/><path d="M79.7,54.6h-.2V55h.3Z" fill="#fff"/><path d="M78.8,53.6h0Z" fill="#fff"/><path d="M79.7,54.1v-.5h-.1Z" fill="#fff"/><path d="M79.7,54.3v.3h0Z" fill="#fff"/><path d="M79.2,55Z" fill="#fff"/><path d="M78.3,54.4h0v-.2h0v.2Z" fill="#fff"/><path d="M78.9,54.9h.5v-.3h.2v-.3h0v-.2l-.2-.5h-.7l-.4.3v.4h0v.5Z" fill="#fff"/><path d="M94.9,56.2h0c-.1.2-.2.3-.2.5a206.6,206.6,0,0,1,31.8,7h-.1l-2.3-2a210.5,210.5,0,0,0-28.8-6.2A2,2,0,0,0,94.9,56.2Z" fill="#fff"/><path d="M95.3,55.4l-.4.8a2,2,0,0,1,.4-.8h0a10.8,10.8,0,0,1,.8-1.9c.1-.3.3-.5.4-.8l1.4-2.9v-.2c.5-1.1,1.1-2.1,1.6-3.1a4.1,4.1,0,0,1,.5-.9l.9-1.7-.5-.3h-.9a8.3,8.3,0,0,1-.7,1.3,5.4,5.4,0,0,1-.5,1.1c-.4.8-.8,1.6-1.3,2.4l-.3.7-1.5,3.1a13,13,0,0,0-.8,1.7l-.7,1.4h.6Z" fill="#fff"/><path d="M100.9,42.2l-.4-.2h0l.4.2Z" fill="#fff"/><path d="M100.5,43.6a.1.1,0,0,1-.1-.1h-.1l-.5-.3-.2.3Z" fill="#fff"/><path d="M100.8,42.2h.1l-.4-.2-.2.2Z" fill="#fff"/><path d="M100.4,43.5h-.1l-.3-.2v-.5c0,.1-.1.2-.2.4l.5.3Z" fill="#fff"/><path d="M101.4,44.2l-.4-.3h0l2.2,1.5.7.5,3.3,2.2.7.5,2.5,1.8,1.1.9,2,1.5,1.2.9,1.9,1.5,1.2,1,1.8,1.5,1.2,1,1.8,1.5,1.1,1,.5.4h-.1l2.3,2-2.2-2,2.8.8h.2l-2.9-2.6-.7-.6-2.2-1.9-1.2-1-1.9-1.6-1.3-1-1.8-1.4-1.4-1.1L112,49.9l-1.4-1-1.8-1.3-1.5-1-1.8-1.3-1.5-1-.7-.5h-1.9Z" fill="#fff"/><path d="M101.4,44.2v-.5h-.3c0,.1-.1.2-.1.3Z" fill="#fff"/><path d="M101,43.9h0l-.5-.3h0Z" fill="#fff"/><path d="M101.1,43.6h-.6l.5.3C101,43.8,101.1,43.7,101.1,43.6Z" fill="#fff"/><path d="M101.4,43.7h1.9l-1.7-1.1-.2.4Z" fill="#fff"/><path d="M101.4,43.1v.2l-.2.3h.3Z" fill="#fff"/><path d="M101.1,42.3h0Z" fill="#fff"/><path d="M100.5,43.6h-.1a.1.1,0,0,0,.1.1Z" fill="#fff"/><path d="M101.4,43.1h0l.2-.4h0C101.5,42.8,101.5,43,101.4,43.1Z" fill="#fff"/><path d="M100,42.8v.5l.3.2h.8l.2-.3v-.2h0c.1-.1.1-.3.2-.4l-.5-.3h-.8l-.2.4A.3.3,0,0,1,100,42.8Z" fill="#fff"/><path d="M94.7,56.7c0-.2.1-.3.2-.5h0l-.2.5h0Z" fill="#fff"/><path d="M94.7,56.7l.2-.5h0l.4-.8-.9-.2h-.6a.8.8,0,0,1-.2.4l-.3.9h1.4Z" fill="#fff"/><path d="M129.5,64.7l-2.9-1h-.1a169.2,169.2,0,0,1,21.4,23.8l.3-.4h0l.6-.7A163.1,163.1,0,0,0,129.5,64.7Z" fill="#fff"/><path d="M151.6,71.9l-1.6-.8-2-.9-1.7-.7-2.1-.9-1.6-.7-2.2-.8-1.6-.6-2.4-.9-1.4-.5-2.9-1-1-.4-3.9-1.2a.1.1,0,0,1,.1.1l2.2,2-2.9-.9,2.9,1h0l.7.3,1.5.5,2.3.8,1.6.5,2.2.8,1.6.6,2.2.9,1.5.6,2.3,1,1.3.5,2.9,1.4.7.2,3.4,1.7,1.1.5,2,1,.2-.2L156,74l-.8-.4-1.6-.8Z" fill="#fff"/><path d="M157.3,75.3l.2-.3h0v-.2L156,74l1,1.7Z" fill="#fff"/><path d="M126.5,63.7h0Z" fill="#fff"/><path d="M126.5,63.7h.1l2.9.9-2.2-2a.1.1,0,0,0-.1-.1H127l-2.8-.8,2.2,2h.1Z" fill="#fff"/><path d="M157.9,74.4h0Z" fill="#fff"/><path d="M164.5,67.1l-.5.8h0a103.7,103.7,0,0,1,13,19.3h0l2.2,1.8h0l.2-.2a106.7,106.7,0,0,0-14.8-22.3v.7Z" fill="#fff"/><path d="M158.8,75.5l.2-.2c-.1,0-.1.1-.2.2h0Z" fill="#fff"/><path d="M162.2,68.2l-.7,1Z" fill="#fff"/><path d="M163.1,66.8h0l-.3.5Z" fill="#fff"/><path d="M158,76.6h0l.4.2Z" fill="#fff"/><path d="M163.1,66.8h0l-.3.5h-.1c0,.1-.1.2-.2.4h0l-.3.4h0l-.7,1h0l-.3.4v.2l-.3.4-.2.2-.3.5v.2l-.5.6a.3.3,0,0,1-.1.2l-.4.6-.2.2-.3.5-.2.3-.5.6v.2h0l.4.7.5.3c.1-.1.1-.2.2-.2l.2-.3a1,1,0,0,1,.4-.5v-.3l.5-.7.2-.2.3-.5.2-.3.3-.4.2-.3a1,1,0,0,1,.4-.5l.2-.3.2-.3c0-.1.1-.2.2-.3s.1-.2.1-.3l.3-.4.2-.3.2-.2v-.6l.3-.4h.1v-.2l.5-.8v-.9l-.6-.5c0-.1,0-.1-.1-.1l-.4.7Z" fill="#fff"/><path d="M163.8,65.6h0c.1,0,.1,0,.1.1Z" fill="#fff"/><path d="M158,75h.3l-.4-.7-.3.3Z" fill="#fff"/><path d="M158,75l-.4-.2V75Z" fill="#fff"/><path d="M178.4,91.3h0a7.5,7.5,0,0,0,.7-1.2l-.7,1.2Z" fill="#fff"/><path d="M156.9,78.1l1.1-1.5h0Z" fill="#fff"/><path d="M150.2,88.4l-.6-.9,1.4-1.7-1.4,1.7Z" fill="#fff"/><path d="M158.5,101.4l-.2-.4.2.4Z" fill="#fff"/><path d="M148.7,88.6h0l.5.7Z" fill="#fff"/><path d="M148.8,86.4l1.1-1.5-1.1,1.5Z" fill="#fff"/><path d="M155.6,77.5l1.2-1.6h0Z" fill="#fff"/><path d="M158.8,77l-.4-.2h0Z" fill="#fff"/><path d="M157.4,102.3l-.3-.7.3.7Z" fill="#fff"/><polygon points="156.8 75.9 156.8 75.9 156.8 75.9 156.8 75.9 156.8 75.9" fill="#fff"/><polygon points="158 76.6 158 76.6 158 76.6 158 76.6 158 76.6" fill="#fff"/><path d="M158.4,76.8Z" fill="#fff"/><path d="M157.6,76.4h-.2v-.2l-.5-.3-1.2,1.6-.6.9-2.1,2.8-.2.2-2,2.6-.8.9-1.1,1.5h0l-.6.7h0l.6-.7.5.7.3.4,1.4-1.7.7-.9,2.2-2.8.3-.5,1.9-2.4.8-1.1,1.1-1.5Z" fill="#fff"/><path d="M157.6,76.4l.4.2h0l-.3-.2Z" fill="#fff"/><path d="M156.8,75.9l.2-.2h0l-.2.2h0l.5.3h0Z" fill="#fff"/><path d="M157.3,76.2v.2h-.1Z" fill="#fff"/><path d="M157.3,75.3l.2-.3h0l-.2.3-.3.4h0Z" fill="#fff"/><path d="M157.5,76.3h0Z" fill="#fff"/><path d="M177,87l-.6-.4h0l-.6-.5h-.2l-.6-.5h0l-.8-.5-.2-.2-.7-.5h-.1l-.8-.6h-.2l-.9-.6h-.1l-1-.7H170l-1-.7h-.1a4.1,4.1,0,0,0-1.1-.7l-.2-.2-1.2-.7h0l-1.3-.8h-.2l-1.2-.8h-.1l-1.4-.8-.3-.2-1.3-.7h-.1l-1.5-.8h-.2l-.2.2,1.1,1.8-1.3-.7.4.2.6.3.5.3.5.3.5.2.6.4.4.2.6.3.3.2.8.5.5.3.5.3.5.3.4.2.4.3.5.3.4.2.4.3.4.2.4.3.4.2.3.3.4.2.4.2.3.3.4.2.3.2.3.2.4.3.3.2.3.2.3.2,1.2.8.2.2.3.2.2.2.3.2c.1.1.2.1.2.2l.3.2h.2l.2.2.2.2h.3l.2.2.2.2a.1.1,0,0,1,.1.1h.2l.2.2h.2a.1.1,0,0,0,.1.1l.2.2h.3l.4.3h.1l.3.3,1-.9h0Z" fill="#fff"/><path d="M177.9,89.5h0Z" fill="#fff"/><path d="M158.2,76.4h0l-.2.2h0l.4.2h0l1.3.7-1.1-1.8a.5.5,0,0,1-.2.4Z" fill="#fff"/><path d="M158.8,75.5l-.2.2h0l.2-.2-.5-.3h0Z" fill="#fff"/><path d="M158,75Z" fill="#fff"/><path d="M158.4,76.1c-.1.1-.2.2-.2.3h0l.2-.3a.5.5,0,0,0,.2-.4h0Z" fill="#fff"/><polygon points="157.3 76.2 157.2 76.1 157 75.7 156.8 75.9 157.3 76.2" fill="#fff"/><path d="M158,76.6l.2-.2h-.5Z" fill="#fff"/><polygon points="158.8 75.5 158.3 75.2 158.6 75.7 158.8 75.5" fill="#fff"/><path d="M157.3,75.3l-.3.4.2.4h1c0-.1.1-.2.2-.3l.2-.4-.3-.5h-.8Z" fill="#fff"/><path d="M65,119.9h0c0-.2-.1-.3-.1-.5Z" fill="#fff"/><polygon points="76.8 116.8 76.8 116.8 66.6 96 76.8 116.8" fill="#fff"/><path d="M77.9,119.6h0Z" fill="#fff"/><polygon points="159.3 103 159.3 103 159.3 103 159.4 103 159.3 103" fill="#fff"/><path d="M147.9,87.5a253.7,253.7,0,0,1-24.2,25.3h.2l2.5-.5a239.9,239.9,0,0,0,22.3-23.6l-.5-.7h0Z" fill="#fff"/><path d="M148.2,87.9h0l-.3-.4.3-.4-.3.4Z" fill="#fff"/><path d="M149.3,87.9l-.6.7-.5-.7.5.7h0l.5.7.5.7a10.5,10.5,0,0,0,.8,1.1l.5.8a10.5,10.5,0,0,1,.8,1.1,4.3,4.3,0,0,0,.4.7l1.1,1.6a.3.3,0,0,0,.1.2l1.1,1.8.3.5.8,1.3.4.7.6,1.1.5.7.3.7.6-.2.5-.7-.2-.4a5.6,5.6,0,0,1-.5-.8l-.6-1-.4-.8a7.5,7.5,0,0,1-.7-1.2l-.4-.6-.9-1.5-.3-.4-1.2-1.9-.2-.3a13,13,0,0,1-1-1.5l-.5-.7a8.3,8.3,0,0,1-.8-1.2l-.6-.7-.6-.9Z" fill="#fff"/><path d="M148.2,87.9h0l.5.7.6-.7.3-.4-.3-.4-.5-.7-.6.7h0l-.3.4Z" fill="#fff"/><path d="M158.3,103.9h0c.2.3.3.7.5,1S158.5,104.2,158.3,103.9Z" fill="#fff"/><path d="M175.3,93.8h.1a111,111,0,0,1-12.5,16.6h0a8.4,8.4,0,0,0,.4,1v.4a102.7,102.7,0,0,0,15-20.5v.2Z" fill="#fff"/><path d="M158.7,101.8h0Z" fill="#fff"/><path d="M161.9,111.5a.4.4,0,0,1-.1-.3.4.4,0,0,0,.1.3Z" fill="#fff"/><path d="M159.3,103h0Z" fill="#fff"/><path d="M177.3,90.5Z" fill="#fff"/><path d="M159.5,102.9h0Z" fill="#fff"/><path d="M179.6,89.2h0v-.3h-.1l-.2.2Z" fill="#fff"/><path d="M179.4,89.4v.3A.4.4,0,0,0,179.4,89.4Z" fill="#fff"/><path d="M178.9,90.4l-.6-.5h-.1l-.8.7h-.6v.2h-.5v.2c-.1,0-.2,0-.2.1h-.2c0,.1-.1.1-.2.2h-.1l-.2.2c-.1,0-.2,0-.2.1h-.2c-.1.1-.2.1-.2.2s-.2.1-.2.2h-.3l-.2.2h-.2l-.6.5H173l-.3.2-.2.2-.3.2H172l-.3.2-.3.2-.3.2h-.2l-.3.2-.3.2-.3.2-.4.2-.3.2-.3.2-.3.2-.4.2-.3.2-.3.2-.4.2-.4.2-.3.2-.4.2-.4.2-.4.2-.3.2-.4.2-.4.3-.5.2-.4.2-.4.2-.4.2-.5.2-.4.3-.4.2-.5.2-.5.2-.4.2-.5.3-.5.2h-.2l1.8-.9-1.3,1.8v.3h.2l1.2-.6h.1l1.1-.5.3-.2,1.1-.5h.1l1.1-.5.3-.2.8-.4h.3l1-.6h.1l.9-.5h.2l.9-.5h0l.9-.5.2-.2.7-.4h.1l.8-.5h.2l.6-.4h.1l.7-.4h.1l.6-.4h.2l.5-.4h.1l.5-.4,3-2.3v-.2h0l.7-1.2.2-.4h0Z" fill="#fff"/><path d="M179.5,89.4h-.1l.2-.2h0Z" fill="#fff"/><path d="M179.6,89.2l-.4-.3-1,.9h.1l.6.5.4-.7h0v-.3h.1Z" fill="#fff"/><polygon points="159.3 103 159.3 103 159.3 103 159.3 103 159.3 103 159.3 103 159.3 103" fill="#fff"/><path d="M159.3,103h0v-.3h0A.4.4,0,0,1,159.3,103Z" fill="#fff"/><path d="M102.1,131.2l.6-.4-.6.4Z" fill="#fff"/><path d="M121.6,116.5l2.8-2.5,2.2-.5-2.2.5Z" fill="#fff"/><polygon points="138.8 129.7 138.8 129.7 141.4 126.3 138.8 129.7" fill="#fff"/><path d="M156.3,104.3,138,128.6l18.3-24.3-.9.4Z" fill="#fff"/><path d="M126.4,112.2l2.2-.5-2.2.5Z" fill="#fff"/><path d="M100,130.9l1.7-1.1-1.7,1.1Z" fill="#fff"/><path d="M121.7,114.6h0l-.6.5Z" fill="#fff"/><path d="M156.8,102.6l.6-.3h0Z" fill="#fff"/><polygon points="157.4 102.3 157.4 102.3 157.4 102.3 157.4 102.3 157.4 102.3" fill="#fff"/><path d="M157.4,102.3l-.6.3-.8.4-1.1.4-.7.3-1.2.5-.7.3-1.5.6h-.4l-1.9.7-.7.2-1.3.5-.8.3-1.2.4-.9.2-1.1.4-.9.3-1.2.3-.9.3-1.2.4-.9.2-1.2.4-1,.2-1.2.4-1,.2-1.3.3-.9.3-1.5.3-.7.2-2.2.5h0l-2.5.5h0l2.5-.5-1.9,1.7h-.1l2.2-.5h.2l2.1-.5.8-.2,1.4-.3.9-.2,1.4-.4.9-.2,1.3-.3.9-.3,1.2-.3,1-.3,1.2-.4.9-.2,1.2-.4.9-.3,1.2-.4.8-.2,1.3-.5.8-.2,1.3-.5.6-.2,2-.7h.2l1.7-.7.6-.2,1.3-.5.7-.3.9-.4,1.3-1.7Z" fill="#fff"/><path d="M157.4,102.3l.2.3h0v-.3l.5-.2h0l-.6.2Z" fill="#fff"/><path d="M159.1,102.4v.3l1.3-1.8-1.8.9.3.5C159,102.4,159,102.4,159.1,102.4Z" fill="#fff"/><polygon points="157.6 102.6 158 102.1 157.4 102.3 157.6 102.6" fill="#fff"/><path d="M159.2,102.7h0v-.3C159.1,102.5,159.2,102.6,159.2,102.7Z" fill="#fff"/><polygon points="136 131.2 136 131.2 138 128.6 136 131.2" fill="#fff"/><polygon points="158.3 103.9 158.3 103.9 141.4 126.3 158.3 103.9" fill="#fff"/><path d="M161.9,111.5a109.7,109.7,0,0,1-23.1,18.2l-1.1,1.5h1.2a104,104,0,0,0,23.5-18.3l-.4-1A1,1,0,0,1,161.9,111.5Z" fill="#fff"/><path d="M158.7,101.8l-.2-.4h0c.1.1.1.3.2.4Z" fill="#fff"/><path d="M158.7,101.8h0c-.1-.1-.1-.3-.2-.4h0C158.6,101.5,158.6,101.7,158.7,101.8Z" fill="#fff"/><path d="M158,102.1h.1l.6-.2c-.1-.1-.1-.3-.2-.4Z" fill="#fff"/><path d="M162.9,110.4h0l-.2-.3h0c-.1-.1-.1-.3-.2-.4h0c-.1-.1-.1-.3-.2-.4h-.1a1.4,1.4,0,0,0-.2-.6h-.1a1.7,1.7,0,0,0-.2-.5h-.1a6.4,6.4,0,0,1-.2-.7.1.1,0,0,1-.1-.1l-.3-.6V106l-.3-.7-.2-.3c-.1-.1-.1-.3-.2-.4l-.3-.5a1.7,1.7,0,0,1-.2-.5l-.3-.5h-.1l-.5.2-.5.7h0c.2.3.3.7.5,1h.1a3,3,0,0,0,.4.8h0l.4.8h0l.3.7h.1l.3.6h0l.3.6h.1c0,.2.1.3.2.5h0c.1.2.2.3.2.4h.1c0,.2.1.3.1.5h.1v.3h0a.4.4,0,0,1,.1.3h.1a.4.4,0,0,0,.1.3h0a1,1,0,0,0,.1.4l.4,1,.7-.8h0l.3-.3v-.4A8.4,8.4,0,0,1,162.9,110.4Z" fill="#fff"/><polygon points="158.7 101.8 158.7 101.8 158.7 101.8 158.7 101.8 158.7 101.8" fill="#fff"/><polygon points="158.7 101.8 158.7 101.8 158.7 101.8 158.7 101.8 158.7 101.8 158.7 101.8 158.7 101.8" fill="#fff"/><path d="M158.8,103.2h0l.5-.2h0Z" fill="#fff"/><path d="M158.1,102h0l.6-.2h0l-.6.2Z" fill="#fff"/><path d="M159.3,103a.4.4,0,0,0-.1-.3l-.4.5Z" fill="#fff"/><path d="M156.3,104.3,138,128.6l-2,2.6h1.7l1.1-1.5h0l2.6-3.4,16.9-22.4c-.1-.1-.1-.2-.2-.4Z" fill="#fff"/><path d="M157.8,103c-.1-.1-.1-.3-.2-.4l-1.3,1.7,1.8-.8-.3-.5Z" fill="#fff"/><path d="M157.8,103h0l-.2-.4h0C157.7,102.7,157.7,102.9,157.8,103Z" fill="#fff"/><path d="M158.1,102h0Z" fill="#fff"/><path d="M158.7,103.3l-.6.2h0c.1.2.1.3.2.4l.5-.7Z" fill="#fff"/><path d="M159,102.3h.1c-.1,0-.1,0-.1-.1l-.3-.5h0Z" fill="#fff"/><path d="M158.1,103.5h0l.6-.2h0Z" fill="#fff"/><path d="M158.1,103.5h0l-.3-.5Z" fill="#fff"/><path d="M158.7,103.3h0Z" fill="#fff"/><path d="M158.1,102H158l-.4.5.2.4h0l.3.5.6-.2h.1l.4-.5c0-.1-.1-.2-.1-.3H159l-.3-.5-.6.2Z" fill="#fff"/><path d="M83.8,87.3h.1v0Z" fill="#fff"/><path d="M83.8,87.3h.1V87h0l-.6-2.8L82.5,87h0c-.4,1.3-.7,2.5-1,3.8s-.1.5-.2.8-.5,2-.7,3l-.3,1.4a20.5,20.5,0,0,0-.5,2.4,7.5,7.5,0,0,1-.4,1.6c-.1.8-.3,1.5-.4,2.3l-.3,1.6c-.1.8-.3,1.5-.4,2.3L78,108l-.3,2.1a11.1,11.1,0,0,0-.2,1.7l-.3,2.2a11.1,11.1,0,0,0-.2,1.7c-.1.4-.1.8-.2,1.1l.7,1.4H78l.3-2.2c0-.4.1-.8.1-1.2s.4-2.5.5-3.7a1.3,1.3,0,0,0,.1-.6c.2-1.1.4-2.1.5-3.2a5.9,5.9,0,0,0,.2-1.3c.2-.8.3-1.6.5-2.5l.3-1.4c.1-.8.3-1.6.4-2.3l.3-1.6c.2-.7.3-1.5.5-2.2a8.3,8.3,0,0,1,.4-1.5,15.5,15.5,0,0,1,.5-2.3l.3-1.5c.1-.2.1-.4.2-.6h0a163.3,163.3,0,0,0,8.8,27.2h1.4a164.2,164.2,0,0,1-9.4-30Z" fill="#fff"/><path d="M94.7,56.7H93.3a190.4,190.4,0,0,0-10,27.7,27.4,27.4,0,0,0,.5,2.8h0v.2A196.9,196.9,0,0,1,94.7,56.7Z" fill="#fff"/><path d="M77.1,118.2h.4l-.7-1.4c0,.5-.1,1-.1,1.4Z" fill="#fff"/><path d="M93.3,117.2c.1.1.1.3.2.4h0a3.6,3.6,0,0,0,.4.9c9.7-.9,19.1-2.2,27.8-3.9l1.9-1.7h.1A288.1,288.1,0,0,1,93.3,117.2Z" fill="#fff"/><path d="M97.2,128.6c.5.9,1,1.7,1.4,2.6h0C98.2,130.3,97.7,129.5,97.2,128.6Z" fill="#fff"/><path d="M123.6,112.9h0Z" fill="#fff"/><path d="M124.2,114.1l-2.5.5,1.9-1.7h0l-1.9,1.7h0l-.6.5-1.2,1-1.6,1.4-1.3,1-1.6,1.3-1.2,1-1.8,1.3-1.1.9-1.9,1.4-1,.8-2.6,1.8-.3.3-2.9,1.9-.9.6-1.7,1.1.2.3h1.9l.6-.4,1.3-.9,1.7-1.1,1.3-.9,1.6-1.2,1.3-.9,1.7-1.3,1.2-.9,1.8-1.4,1.2-.9,1.8-1.5,1.1-.9,2.2-1.9.7-.5,2.8-2.5Z" fill="#fff"/><path d="M123.6,112.9h0l-1.9,1.7,2.5-.5h.3l1.9-1.7-2.5.5h-.3Z" fill="#fff"/><path d="M93.3,117.2l.2.4c-.1-.1-.1-.3-.2-.4h0Z" fill="#fff"/><polygon points="98.9 131.7 98.9 131.7 98.9 131.6 98.9 131.7" fill="#fff"/><path d="M90.1,118.8l2.3-.2a.4.4,0,0,1,.1.3.4.4,0,0,0-.1-.3Z" fill="#fff"/><path d="M94,118.8a.4.4,0,0,1-.1-.3h0A.4.4,0,0,0,94,118.8Z" fill="#fff"/><path d="M100,130.9c0-.1,0-.2-.1-.2s.1.1.1.2Z" fill="#fff"/><path d="M78.2,119.5h0Z" fill="#fff"/><path d="M78,118.2h0Z" fill="#fff"/><path d="M91.9,117.3h0l-2,.2,1.9-.2h.1Z" fill="#fff"/><polygon points="78 118.2 78 118.2 78 118.2 78 118.2 78 118.2" fill="#fff"/><path d="M77.9,119.6Z" fill="#fff"/><polygon points="100 130.9 100 130.9 100 130.9 100 130.9 100 130.9" fill="#fff"/><path d="M92.8,117.2Z" fill="#fff"/><path d="M92.2,118.2l-.4-.9-1.9.2H88.7l-3.3.2H85l-3.7.2H78v.8h-.1l.3.4h3.1l3.3-.2h.5l3.8-.3h1.2l2.3-.2Z" fill="#fff"/><path d="M78,119h0v-.8h-.5l.2.4.2.4Z" fill="#fff"/><polygon points="77.9 119.1 78 119 77.9 119 77.9 119.1" fill="#fff"/><path d="M77.9,119.1v.4h.3Z" fill="#fff"/><path d="M77.3,118.2h0Z" fill="#fff"/><polygon points="77.7 118.6 77.9 119 77.9 119 77.7 118.6" fill="#fff"/><path d="M77.9,119.1h0v.4h0Z" fill="#fff"/><path d="M99.6,131.2l.4-.3c0-.1,0-.2-.1-.2s-1-1.8-1.4-2.7l-.2-.3a24.4,24.4,0,0,1-1.4-2.8.1.1,0,0,1-.1-.1c-.5-.9-.9-1.9-1.4-2.8s-.1-.3-.2-.5L94,118.8a.4.4,0,0,1-.1-.3h0a3.6,3.6,0,0,1-.4-.9h0l.4.9H92.4a.4.4,0,0,1,.1.3l1.4,3v.2l1.5,3.1h0c.5,1,1,2,1.6,3v.3c.5.9,1,1.7,1.4,2.6Z" fill="#fff"/><polygon points="91.9 117.3 91.8 117.3 91.8 117.3 91.9 117.3 91.9 117.3" fill="#fff"/><path d="M100,130.9l-.4.3h0l.4-.3.2.3h0l-.2-.3Z" fill="#fff"/><path d="M92.8,117.2h-1l.4.9.2.4h1.5l-.4-.9h0l-.2-.4Z" fill="#fff"/><path d="M77.1,142.9h0Z" fill="#fff"/><path d="M76.5,119.9v-.3h0Z" fill="#fff"/><path d="M76,118.3Z" fill="#fff"/><path d="M66,118.5h0Z" fill="#fff"/><path d="M77.9,119.6a19.4,19.4,0,0,0-.2,2.4,19.4,19.4,0,0,1,.2-2.4Z" fill="#fff"/><path d="M76.9,137.2a23.5,23.5,0,0,1,.1-2.6A23.5,23.5,0,0,0,76.9,137.2Z" fill="#fff"/><path d="M77.2,128.3c.1-1.2.1-2.4.2-3.6C77.3,125.9,77.3,127.1,77.2,128.3Z" fill="#fff"/><path d="M75.6,141.1v.2a112.3,112.3,0,0,1-9.2-21.4H65a105.2,105.2,0,0,0,10.5,23.8h.2C75.7,143.1,75.7,142.3,75.6,141.1Z" fill="#fff"/><path d="M77,133.6c0-1.3.1-2.6.1-4.1C77.1,131,77,132.3,77,133.6Z" fill="#fff"/><path d="M77,142.1v0Z" fill="#fff"/><path d="M64.6,118.5h0l.3.9h0Z" fill="#fff"/><path d="M66.9,119.9h4.7l4.5-.2h.4v-.3l-.5-1H64.6l.3.9h0c0,.2.1.3.1.5h1.9Z" fill="#fff"/><polygon points="77.9 119.6 77.9 119.6 77.9 119.6 77.9 119.6 77.9 119.6" fill="#fff"/><path d="M76.6,118.8a1.3,1.3,0,0,1,.1-.6H76l.5,1a.3.3,0,0,0,.1-.2Z" fill="#fff"/><path d="M77.1,118.2h-.4a1.3,1.3,0,0,0-.1.6v-.5Z" fill="#fff"/><path d="M77.1,142.9a.4.4,0,0,0-.1-.3h0v-.3h0v-.9h0v-.4h0v-.5h0c0-.4-.1-.8-.1-1.3h0V138h0v-.6h0a23.5,23.5,0,0,1,.1-2.6h0v-.9h0c0-1.3.1-2.6.1-4.1h0a3.7,3.7,0,0,0,.1-1.1h0c.1-1.2.1-2.4.2-3.6h0a4.9,4.9,0,0,0,.1-1.2h0c.1-.4.1-.8.2-1.2h0a19.4,19.4,0,0,1,.2-2.4H76.5v.3a6.1,6.1,0,0,0-.1,1.4.4.4,0,0,0-.1.3c0,.6-.1,1.1-.1,1.6v.3a5.7,5.7,0,0,0-.1,1.3.9.9,0,0,0-.1.5,6.2,6.2,0,0,1-.1,1.3v.2a6.6,6.6,0,0,1-.1,1.4v1.5a.4.4,0,0,1-.1.3v1.5a3.7,3.7,0,0,1-.1,1.1v5.1h0v3.3c.1,1.2.1,2,.1,2.5l.5-.2.9-.4Z" fill="#fff"/><path d="M77.9,119.6Z" fill="#fff"/><path d="M77.1,119.6h-.6v-.3h0v.3Z" fill="#fff"/><path d="M76.6,118.8h0v.3a.3.3,0,0,1-.1.2h0Z" fill="#fff"/><path d="M77.3,119.6h0Z" fill="#fff"/><polygon points="77.5 118.2 77.7 118.6 77.5 118.2 77.5 118.2" fill="#fff"/><path d="M77.4,119.6h0Z" fill="#fff"/><polygon points="76.5 119.3 76.5 119.6 76.9 119.6 76.7 119.6 76.5 119.3" fill="#fff"/><path d="M77.3,119.6h.6v-.4h0l-.2-.4-.2-.4h-.8v.5h0v.5l.2.3h.6Z" fill="#fff"/><path d="M133.6,132.6a101.8,101.8,0,0,1-26.7,9.2l.2.4.6.8a99.3,99.3,0,0,0,26.2-9.1l1-1.3Z" fill="#fff"/><path d="M98.6,131.2l.3.4c-.1,0-.1-.1-.1-.2l-.2-.2Z" fill="#fff"/><path d="M102.1,131.2l-1.4.9.3.5h33.9l1.1-1.4Z" fill="#fff"/><path d="M136.3,132.6h-1.4l-1,1.3,2.2-1.1.4-.2Z" fill="#fff"/><path d="M137,132.1v.2l1.9-1.1h-1.2Z" fill="#fff"/><path d="M137.7,131.2H136l-1.1,1.4h1.8l.3-.2v-.2Z" fill="#fff"/><path d="M98.6,131.2l.2.2-.2-.2Z" fill="#fff"/><path d="M100.4,131.5h0l.3.6,1.4-.9h-1.9Z" fill="#fff"/><path d="M98.8,131.4c0,.1,0,.2.1.2h0A.4.4,0,0,1,98.8,131.4Z" fill="#fff"/><path d="M98.6,131.2l.2.2a.4.4,0,0,0,.1.3l.5-.4h-.8Z" fill="#fff"/><path d="M100.4,131.5l-.2-.3h0Z" fill="#fff"/><path d="M99.4,131.3h0Z" fill="#fff"/><path d="M98.9,131.7h0l-1.4.8Z" fill="#fff"/><path d="M101,132.6l.6,1-.6-1Z" fill="#fff"/><path d="M77.1,143h0l1.1-.5Z" fill="#fff"/><path d="M99.6,132.8l-1.6,1,1.6-1,.9,1.6-.9-1.6Z" fill="#fff"/><path d="M104.6,141a10.5,10.5,0,0,1,.8,1.1,108,108,0,0,1-18.9,1.7l-7.2-.2h.2l-2.3.9v.4c3.1.2,6.2.4,9.3.4a108.9,108.9,0,0,0,19.8-1.9l-.3-.3C105.5,142.3,105.1,141.6,104.6,141Z" fill="#fff"/><path d="M106.9,141.8h0l-1.4-2Z" fill="#fff"/><path d="M93.6,134.8,87.9,138Z" fill="#fff"/><polygon points="99.6 132.8 99.6 132.8 99.6 132.8 99.6 132.8 99.6 132.8" fill="#fff"/><path d="M82.3,142.2l1-.5,1.7-.8,1.2-.5,1.6-.9,1.2-.6,1.6-.8,1.1-.6,1.9-1.1.9-.5,2.7-1.6.8-.5,1.6-1-.2-.2H97.5l1.4-.9h0l-1.4.8-1.1.7-2,1.2-.8.4L87.9,138l-.6.3-2.2,1.1-1,.5-1.8.8-1.2.6-1.6.7-1.3.5-1.1.5v1.4l2.3-.9.9-.4Z" fill="#fff"/><polygon points="99.2 132.2 98.9 131.7 97.5 132.6 99.4 132.6 99.2 132.2 99.2 132.2" fill="#fff"/><path d="M99.4,132.6l.2.2h0l-.2-.2Z" fill="#fff"/><polygon points="99.6 131.2 100.2 131.2 100 130.9 99.6 131.2" fill="#fff"/><path d="M99.2,132.2l.2.4h0C99.3,132.5,99.3,132.3,99.2,132.2Z" fill="#fff"/><path d="M76.7,144.6h.5v-.4Z" fill="#fff"/><path d="M75.7,143.6h-.2l.3.5V144A1,1,0,0,0,75.7,143.6Z" fill="#fff"/><polygon points="77.1 143 77.1 143 77.1 143 77.1 143 77.1 143" fill="#fff"/><path d="M76.7,144.6l.5-.2V143h0l-.9.4-.5.2a1,1,0,0,1,.1.4v.2a.1.1,0,0,0,.1.1v.4h.7Z" fill="#fff"/><path d="M106.9,141.8h0l-1.4-2c0-.1-.1-.1-.2-.2s-1-1.7-1.6-2.5l-.5-.8-1-1.7-.6-1-.6-1h-1l-.4.2.9,1.6.4.7c.5.8,1,1.7,1.6,2.5l.3.5a13.7,13.7,0,0,0,1.3,2,4.1,4.1,0,0,1,.5.9c.5.6.9,1.3,1.4,2l.3.3h.4l1-.2-.6-.8Z" fill="#fff"/><path d="M100.7,132.1h0l-.5.4h.8Z" fill="#fff"/><path d="M99.6,132.8h0l.4-.2h0Z" fill="#fff"/><path d="M100,132.6Z" fill="#fff"/><path d="M100.4,131.5h0l.3.6h0l-.3-.6Z" fill="#fff"/><polygon points="98.9 131.7 98.9 131.7 98.9 131.7 98.9 131.7 98.9 131.7" fill="#fff"/><path d="M99.2,132.2h0l-.3-.5h0l.3.5Z" fill="#fff"/><path d="M100.7,132.1h0l-.5.4Z" fill="#fff"/><path d="M98.9,131.7l.5-.4-.5.4Z" fill="#fff"/><path d="M99.6,132.8l.4-.2h-.6Z" fill="#fff"/><path d="M100.4,131.5l-.2-.3h-.8l-.5.4.3.5h0c.1.1.1.3.2.4h.8l.5-.4-.3-.6Z" fill="#fff"/><path d="M83.8,87a27.4,27.4,0,0,1-.5-2.8h-.1a1.3,1.3,0,0,0-.1-.6L82.8,82a17,17,0,0,0-.4-2.2,9.9,9.9,0,0,1-.2-1.7,14.3,14.3,0,0,1-.4-2.2,8.8,8.8,0,0,1-.2-1.6,18.5,18.5,0,0,1-.4-2.3,8.8,8.8,0,0,0-.2-1.6L80.7,68c0-.5-.1-1-.1-1.5l-.3-3.1c0-.3-.1-.6-.1-.9l-.3-3.9V57.5a21.1,21.1,0,0,1-.2-2.5H78.3a2.2,2.2,0,0,1,.1.8h0v-.8h-.4L62.2,83.7h0a100.4,100.4,0,0,1,5.9-29.3H66.7a104.2,104.2,0,0,0-6,32.2h0v2.6h0v.4a107.1,107.1,0,0,0,4,28.8H66a103.2,103.2,0,0,1-4-28.8h0l14,28.7h.7c0-.4.1-.9.1-1.4h0L66.6,96l-4.5-9.3,3.7-6.8L78.4,56.7h0a3.4,3.4,0,0,1,.1,1c0,.6.1,1.2.1,1.8s.1,1.5.2,2.3.1,1.2.1,1.7l.3,2.4c0,.5.1,1.1.1,1.7l.3,2.3c.1.6.1,1.1.2,1.7l.3,2.4.3,1.5a23.4,23.4,0,0,0,.4,2.6,7.8,7.8,0,0,0,.2,1.4c.2,1,.3,2,.5,3s.1.6.2.9.5,2.5.8,3.7h0l.7-2.8.6,2.8Z" fill="#fff"/></svg>