<svg xmlns="http://www.w3.org/2000/svg" xmlns:xlink="http://www.w3.org/1999/xlink" width="800" height="700" viewBox="0 0 800 700"><defs><path id="a" d="M-165.712 16.688H965.712v800H-165.712z"/></defs><clipPath id="b"><use xlink:href="#a" overflow="visible"/></clipPath><g clip-path="url(#b)"><defs><path id="c" d="M-165.712 16.688H965.712v800H-165.712z"/></defs><clipPath id="d"><use xlink:href="#c" overflow="visible"/></clipPath><path clip-path="url(#d)" fill="#F7941E" d="M235.982 57.96c7.296-.378 14.643-.54 21.99-.54 29.99 0 59.277 3.126 87.482 9.08-8.43 13.506-16.268 27.016-23.61 40.465v.05c-26.045-16.905-54.627-33.39-85.91-49l.048-.055z"/><path clip-path="url(#d)" fill="#FECA84" d="M235.934 58.066v-.052c31.284 15.612 59.865 32.096 85.91 49.002-9.623 17.615-18.262 35.175-26.1 52.465-19.665-2.75-40.2-5.02-61.6-6.638 0 0 0-.058-.054 0-2.427-56.04 1.623-93.097 1.844-94.776"/><path clip-path="url(#d)" fill="#FCC060" d="M321.843 106.966c7.343-13.45 15.182-26.96 23.61-40.466 48.034 10.1 93.042 28.365 133.515 53.272l-157.125-12.806z"/><path clip-path="url(#d)" fill="#FBB040" d="M321.843 106.966l157.125 12.806c.05 0 .106 0 .16.052l73.316 119.573c-32.466-17.018-74.13-35.333-125.086-50.953-29.44-27.07-64.35-54.79-105.515-81.427v-.05z"/><path clip-path="url(#d)" fill="#D07828" d="M235.934 58.066c-.22 1.68-4.27 38.737-1.844 94.776-14.8-1.198-30.037-2-45.707-2.49 12.11-32.852 28.097-63.81 47.55-92.286M552.444 239.396l-73.316-119.573c36.794 22.635 69.86 50.68 98.065 83.154v.052c-.7 1.134-9.19 14.913-24.69 36.366h-.06z"/><path clip-path="url(#d)" fill="#F7941E" d="M188.383 150.354c15.67.488 30.907 1.296 45.707 2.49 0 0 .054 0 0 .048l-71.266 130.38c1.353-46.582 10.266-91.26 25.56-132.918"/><path clip-path="url(#d)" fill="#FBB040" d="M234.09 152.892l.054-.05c21.4 1.617 41.935 3.888 61.6 6.64-19.774 43.875-34.26 86.507-44.85 126.11-10.585-49.445-15.128-95.31-16.804-132.7"/><path clip-path="url(#d)" fill="#D07828" d="M162.824 283.27l71.266-130.38c1.676 37.392 6.22 83.264 16.805 132.702-12.855 48.31-19.934 92.12-23.713 128.27-.274.053-.487.053-.76.053l-63.598-129.83c-.052-.272-.052-.542 0-.814M295.742 159.48c7.84-17.29 16.478-34.85 26.1-52.464 41.17 26.637 76.076 54.357 105.516 81.427-38.52-11.72-82.393-21.992-131.616-28.962"/><path clip-path="url(#d)" fill="#FECA84" d="M427.358 188.443c50.955 15.62 92.62 33.936 125.086 50.953-9.56 13.293-21.828 29.55-36.634 47.603-21.56-29.612-50.463-63.597-88.452-98.557"/><path clip-path="url(#d)" fill="#F7941E" d="M552.503 239.396c15.5-21.453 23.99-35.23 24.69-36.367 23.72 27.344 44.034 57.763 60.19 90.563-.166.32-.33.64-.486.913-6.968-6.05-34.96-29.117-84.394-55.11"/><path clip-path="url(#d)" fill="#FCC060" d="M552.503 239.396c49.435 25.993 77.426 49.06 84.395 55.11-1.135 2.165-2.32 4.324-3.567 6.483l-.056.058c-9.89 8.638-34.203 27.34-78.447 47.222-8.87-16.37-21.56-37.388-39.016-61.27 14.807-18.053 27.074-34.31 36.635-47.604h.058zM162.824 284.085l63.6 129.834c-15.075.645-30.635 1.077-46.74 1.24-11.13-37.77-17.07-77.753-17.07-119.14-.002-3.993.047-7.997.21-11.935"/><path clip-path="url(#d)" fill="#FBB040" d="M416.12 391.602c40.263-36.09 73.81-73.107 99.69-104.603 17.455 23.882 30.146 44.9 39.016 61.27-33.824 15.123-79.212 30.908-138.707 43.332"/><path clip-path="url(#d)" fill="#D07828" d="M554.826 348.27c44.253-19.88 68.562-38.583 78.447-47.22-16.96 30.363-37.653 58.352-61.32 83.47 0 0-4.916-13.66-17.127-36.25"/><path clip-path="url(#d)" fill="#FECA84" d="M554.826 348.27l-89.15 118.007v.05h-147.51c35.93-22.853 68.676-48.568 97.953-74.725 59.494-12.424 104.882-28.21 138.706-43.33"/><path clip-path="url(#d)" fill="#FCC060" d="M465.676 466.276l89.15-118.006c12.21 22.59 17.127 36.25 17.127 36.25-30.747 32.587-66.624 60.298-106.277 81.756"/><path clip-path="url(#d)" fill="#FECA84" d="M227.182 413.86c3.78-36.147 10.858-79.96 23.713-128.268 8.594 39.93 21.073 82.24 39.177 124.217-19.94 1.786-40.902 3.192-62.89 4.05"/><path clip-path="url(#d)" fill="#D07828" d="M290.072 409.81c47.71-4.163 89.53-10.536 126.047-18.208-29.278 26.156-62.023 51.872-97.953 74.725-10.642-18.64-19.936-37.548-28.095-56.517"/><path clip-path="url(#d)" fill="#FBB040" d="M227.182 413.86c21.988-.858 42.95-2.265 62.89-4.05 8.16 18.97 17.453 37.875 28.095 56.516-29.393 18.7-60.893 35.444-94.285 48.954h-.054v-.053c-.16-1.732-3.026-40.095 3.188-100.07.054-.43.11-.858.166-1.296"/><path clip-path="url(#d)" fill="#F7941E" d="M226.423 413.915l.594 1.247c-6.214 59.97-3.348 98.333-3.188 100.065-18.8-31.02-33.77-64.567-44.145-100.065 16.104-.164 31.664-.597 46.738-1.247"/><path clip-path="url(#d)" fill="#D07828" d="M318.167 466.326h147.45c-37.056 20.153-77.482 34.848-120.165 43.117-9.94-14.093-19.02-28.53-27.285-43.117"/><path clip-path="url(#d)" fill="#FECA84" d="M318.167 466.326c8.265 14.587 17.344 29.023 27.285 43.117-26.206 5.134-53.327 7.787-81.044 7.787-13.67 0-27.18-.65-40.525-1.95 33.39-13.51 64.89-30.257 94.284-48.954"/></g><g fill="#333" stroke="#333" stroke-width=".25" stroke-miterlimit="10"><path d="M90.5 612.54c.473 21.05-13.01 42.34-41.986 42.34h-28.03v-82.79h28.03c28.03 0 41.514 20.106 41.986 40.45zM26.87 578.12v70.607h21.645c24.6 0 35.954-18.45 35.6-36.19-.355-17.27-11.71-34.418-35.6-34.418H26.87zM119.59 625.667c0-17.504 13.245-30.16 29.685-30.16 16.44 0 31.105 10.054 28.858 32.88h-52.63c1.183 13.72 11.708 21.645 23.772 21.645 7.688 0 16.676-3.075 21.052-8.87l4.14 3.31c-5.678 7.452-15.85 11.237-25.192 11.237-16.44-.002-29.686-11.475-29.686-30.043zm53.34-2.365c-.12-14.43-9.58-22.472-23.655-22.472-12.064 0-22.472 8.16-23.772 22.472h47.426zM202.847 596.454h6.387l21.29 51.685 21.288-51.686h6.387l-24.483 58.426h-6.387l-24.483-58.426zM291.782 611.475h47.663v6.03h-47.663V655h-6.387V572.09H341.1v6.387h-49.318v32.998zM367.35 625.667c0-17.504 13.247-30.16 29.687-30.16s31.105 10.054 28.858 32.88h-52.63c1.182 13.72 11.708 21.645 23.77 21.645 7.69 0 16.677-3.075 21.053-8.87l4.14 3.31c-5.677 7.452-15.848 11.237-25.19 11.237-16.44-.002-29.687-11.475-29.687-30.043zm53.34-2.365c-.117-14.43-9.58-22.472-23.653-22.472-12.063 0-22.472 8.16-23.772 22.472h47.426zM497.562 607.1c-5.913-5.205-11.71-6.15-18.214-6.15-9.106-.12-17.858 3.31-17.622 10.762.236 7.806 10.408 9.344 17.74 10.645 10.408 1.774 24.72 3.548 24.128 17.15-.355 12.89-13.72 16.32-24.01 16.32-10.29 0-20.46-3.903-25.546-11.71l4.258-3.783c4.85 6.978 13.6 9.935 21.407 9.935 7.096 0 17.858-1.894 18.213-11.12.237-8.395-9.46-10.052-19.04-11.59-11.355-1.892-22.59-4.02-22.71-15.73-.117-11.47 11.355-16.438 23.182-16.32 8.516 0 15.967 2.365 21.762 7.806l-3.548 3.783zM546.402 578.832v17.622h19.87v4.85h-19.87v35.6c0 7.924 1.656 13.482 10.763 13.482 2.84 0 6.032-.946 8.99-2.365l2.01 4.73c-3.667 1.775-7.333 2.958-11 2.958-12.418 0-16.44-7.333-16.44-18.806v-35.6H528.31v-4.85h12.418v-17.03l5.676-.59zM667.626 594.917L640.66 630.87h-3.075L611.21 594.8v60.2H595.6v-82.79h17.977l25.9 35.6 25.902-35.6h17.858V655h-15.612v-60.08zM762.354 571.972h15.61v82.908h-9.697v.118l-43.523-55.942v55.824h-15.612v-82.79h12.655l40.567 51.33v-51.448z"/></g></svg>