<svg xmlns="http://www.w3.org/2000/svg" viewBox="0 0 240 240"><title>devfestmnfocus-icon-only</title><path d="M75.8,144.6h.1v0Z" fill="#faaf41"/><path d="M76,144.7h0Z" fill="#f69320"/><path d="M72.6,61.8C76.1,54,80,46.1,84.4,38.1h-.2C79.9,46,76,54,72.4,61.8Z" fill="#fff"/><path d="M41.1,177.6h0Z" fill="#fff"/><path d="M44.5,58.8Z" fill="#fff"/><path d="M44.5,58.8a363.9,363.9,0,0,0,7.7,60.4,363.9,363.9,0,0,1-7.7-60.4Z" fill="#fff"/><path d="M127.3,167.7c27-5.7,47.5-12.8,62.9-19.7l.2-.2h-.1c-15.3,6.8-36,14-63,19.6a347.4,347.4,0,0,1-44.5,34v.2A355,355,0,0,0,127.3,167.7Z" fill="#fff"/><path d="M45.2,15.7h.2A386.9,386.9,0,0,1,84.1,37.9c3.4-6.1,6.9-12.2,10.7-18.4A192.6,192.6,0,0,0,55,15.4l-10,.2h.2Z" fill="#17a398"/><path d="M84.3,38h0Z" fill="#feca83"/><path d="M44.5,58.8c9.7.7,19,1.8,27.9,3C76,54,79.9,46,84.2,38.1a.1.1,0,0,0-.1-.1A400.5,400.5,0,0,0,45.3,15.8c-.2,1.8-1.8,18.4-.8,43Z" fill="#d9e5d6"/><path d="M45.2,15.8v0Z" fill="#034f49"/><path d="M45.3,15.7h0Z" fill="#17a398"/><path d="M45.4,15.7h-.1A400.5,400.5,0,0,1,84.1,38h0A386.9,386.9,0,0,0,45.4,15.7Z" fill="#d9e5d6"/><path d="M155.9,43.8A189.5,189.5,0,0,0,95.2,19.5c-3.8,6.2-7.4,12.3-10.8,18.4Z" fill="#0fa3b1"/><path d="M84.2,38.1h0Z" fill="#faaf41"/><path d="M132.6,75.2c0-.1-.1-.1-.1-.2h-.4Z" fill="#faaf41"/><path d="M84.1,38a.1.1,0,0,1,.1.1h-.1Z" fill="#faaf41"/><path d="M45.4,15.7h0Z" fill="#034f49"/><path d="M45.3,15.8h0V16A189.1,189.1,0,0,0,23.7,57.7c7.1.2,14,.6,20.7,1.1h.1C43.5,34.2,45.1,17.6,45.3,15.8Z" fill="#034f49"/><path d="M45.3,15.7h0Z" fill="#034f49"/><path d="M44.5,58.8h-.1c-6.7-.5-13.6-.9-20.7-1.1a192.3,192.3,0,0,0-11.6,60.5L44.5,58.8Z" fill="#17a398"/><path d="M44.5,58.8h0Z" fill="#f69320"/><path d="M72.6,61.8h-.2q-13.4-1.8-27.9-3h0a363.9,363.9,0,0,0,7.7,60.4A376.2,376.2,0,0,1,72.6,61.8Z" fill="#03cea4"/><path d="M44.5,58.8q14.6,1.2,27.9,3h0c-8.9-1.2-18.2-2.3-27.9-3Z" fill="#faaf41"/><polygon points="44.5 58.8 44.5 58.8 44.5 58.8 44.5 58.8" fill="#faaf41"/><polygon points="44.5 58.8 44.5 58.8 12.1 118.2 44.5 58.8 44.5 58.8" fill="#cf7829"/><path d="M72.6,61.8h0a400.7,400.7,0,0,1,59.3,13.1A368.4,368.4,0,0,0,84.4,38.1C80,46.1,76.1,54,72.6,61.8Z" fill="#034f49"/><polygon points="84.4 38 84.4 38 84.5 38 84.4 38" fill="#cf7829"/><path d="M131.9,74.9h.6a360.4,360.4,0,0,0-48-37h-.1A368.4,368.4,0,0,1,131.9,74.9Z" fill="#034f49"/><polygon points="72.6 61.8 72.6 61.8 72.6 61.8 72.6 61.8 72.6 61.8" fill="#cf7829"/><path d="M132.6,75.2a301.3,301.3,0,0,1,40.1,44.7c6.7-8.3,12.3-15.7,16.7-21.7l-.5-.3v.3A321.7,321.7,0,0,0,132.6,75.2Z" fill="#d9e5d6"/><path d="M188.9,97.9,155.7,43.8h-.1L84.5,38a360.4,360.4,0,0,1,48,37c0,.1.1.1.1.2a321.7,321.7,0,0,1,56.4,23Z" fill="#03cea4"/><path d="M200.8,81.9c-.4.5-4.2,6.7-11.2,16.4,22.4,11.8,35,22.2,38.2,25l.2-.4a188.2,188.2,0,0,0-27.4-41.2h0l.2.2Z" fill="#17a398"/><path d="M200.6,81.7A194,194,0,0,0,156.1,44l33.4,54.4h.1c7-9.7,10.8-15.9,11.2-16.4h0Z" fill="#034f49"/><path d="M226.1,126.2l-.2.5.2-.2h.1l1.6-2.9c-3.2-2.8-15.9-13.3-38.4-25.1h0c-4.4,6-9.9,13.4-16.6,21.6a241.6,241.6,0,0,1,17.6,27.7C210.6,138.7,221.6,130.2,226.1,126.2Z" fill="#0fa3b1"/><path d="M190.4,147.7Z" fill="#fabf5f"/><path d="M19.8,178.2c7.3-.1,14.4-.3,21.2-.6L12.1,118.5c-.1,1.8-.1,3.6-.1,5.5A190.4,190.4,0,0,0,19.8,178.2Z" fill="#0fa3b1"/><path d="M127.3,167.4c27-5.6,47.7-12.8,63-19.6a241.6,241.6,0,0,0-17.6-27.7h0A432,432,0,0,1,127.3,167.4Z" fill="#03cea4"/><path d="M190.3,147.8h.1A241.6,241.6,0,0,0,172.8,120h-.1A241.6,241.6,0,0,1,190.3,147.8Z" fill="#03cea4"/><path d="M197.4,162.1a11.2,11.2,0,0,1,.5,1.3c.1.1.1.3.2.4v.4a192.4,192.4,0,0,0,27.7-37.5c-4.7,4-15.7,12.3-35.4,21.2C194.1,154.6,196.3,159.5,197.4,162.1Z" fill="#034f49"/><path d="M190.4,147.7h0v.2c19.7-8.9,30.7-17.2,35.4-21.2l.2-.5C221.6,130.2,210.6,138.7,190.4,147.7Z" fill="#034f49"/><path d="M190.2,148c-15.4,6.9-35.9,14-62.9,19.7a355,355,0,0,1-44.4,33.9h67l.2-.3h-.2Z" fill="#d9e5d6"/><path d="M197.9,163.4a11.2,11.2,0,0,0-.5-1.3c-1.1-2.6-3.3-7.5-6.9-14.2h-.1v-.2l-.2.2h.2l-40.3,53.4a191.5,191.5,0,0,0,48.1-37.1v-.4C198,163.7,198,163.5,197.9,163.4Z" fill="#0fa3b1"/><path d="M190.4,148h.1v-.2h0Z" fill="#fabf5f"/><path d="M197.4,162.1c-1.1-2.6-3.3-7.5-6.9-14.2h0C194.1,154.6,196.3,159.5,197.4,162.1Z" fill="#0fa3b1"/><path d="M197.9,163.4c.1.1.1.3.2.4S198,163.5,197.9,163.4Z" fill="#fabf5f"/><path d="M190.5,147.9v-.2h0v.2Z" fill="#fabf5f"/><path d="M190.2,148l-40.3,53.4h.2l40.3-53.4Z" fill="#0fa3b1"/><path d="M41.4,177.4c9.9-.4,19.3-1,28.3-1.8H70a305.8,305.8,0,0,1-17.8-56.5A371.9,371.9,0,0,0,41.4,177.4Z" fill="#d9e5d6"/><path d="M70,175.7a227.7,227.7,0,0,0,12.8,25.7,347.4,347.4,0,0,0,44.5-34A481.3,481.3,0,0,1,70,175.7Z" fill="#034f49"/><path d="M44.5,58.8h0L12.1,118.2v.3L41,177.6h.4v-.2a371.9,371.9,0,0,1,10.8-58.2A363.9,363.9,0,0,1,44.5,58.8Z" fill="#034f49"/><path d="M69.8,175.7h-.1c-9,.8-18.4,1.4-28.3,1.8v.2h-.3l.2.6c-2.7,26-1.6,43.1-1.5,45.3a269.4,269.4,0,0,0,42.7-22.2A253.6,253.6,0,0,1,69.8,175.7Z" fill="#03cea4"/><path d="M41.3,178.2l-.2-.6H41c-6.8.3-13.9.5-21.2.6a187.9,187.9,0,0,0,19.7,44.9l.2.4h.1C39.7,221.3,38.6,204.2,41.3,178.2Z" fill="#17a398"/><path d="M82.9,201.7c3.7,6.5,7.8,13,12.3,19.4h-.1v.2a194,194,0,0,0,54.7-19.6h-67Z" fill="#034f49"/><path d="M82.7,201.7h.2v-.2a263.8,263.8,0,0,1-42.9,22.3c6,.6,12.2.9,18.4.9a193.8,193.8,0,0,0,36.8-3.5c-4.5-6.4-8.6-12.9-12.3-19.4Z" fill="#d9e5d6"/><path d="M82.8,201.7h0Z" fill="#feca83"/><path d="M82.9,201.7h-.1c3.7,6.5,7.8,13,12.3,19.4h.1C90.7,214.7,86.6,208.2,82.9,201.7Z" fill="#feca83"/></svg>